<?xml version="1.0" encoding="UTF-8"?>
<svg width="135px" height="62px" viewBox="0 0 135 62" version="1.1" xmlns="http://www.w3.org/2000/svg" xmlns:xlink="http://www.w3.org/1999/xlink">
    <!-- Generator: Sketch 42 (36781) - http://www.bohemiancoding.com/sketch -->
    <title>adp</title>
    <desc>Created with Sketch.</desc>
    <defs>
        <polygon id="path-1" points="0.0230883813 61.1842105 134.467887 61.1842105 134.467887 0.151613704 0.0230883813 0.151613704"></polygon>
        <polygon id="path-3" points="0.0230883813 61.1842105 134.467887 61.1842105 134.467887 0.151613704 0.0230883813 0.151613704"></polygon>
    </defs>
    <g id="Page-1" stroke="none" stroke-width="1" fill="none" fill-rule="evenodd">
        <g id="adp">
            <g id="Fill-1-Clipped">
                <mask id="mask-2" fill="white">
                    <use xlink:href="#path-1"></use>
                </mask>
                <g id="path-23"></g>
                <path d="M118.514585,60.3534136 C116.342354,60.3534136 114.587252,58.5948486 114.587252,56.4230015 C114.587252,54.2777061 116.342354,52.519141 118.514585,52.519141 C120.676812,52.519141 122.422294,54.2777061 122.422294,56.4230015 C122.422294,58.5948486 120.676812,60.3534136 118.514585,60.3534136 Z M118.514585,61.1842105 C121.145506,61.1842105 123.253091,59.0650819 123.253091,56.4230015 C123.253091,53.8074727 121.145506,51.6841112 118.514585,51.6841112 C115.874044,51.6841112 113.750683,53.8074727 113.750683,56.4230015 C113.750683,59.0650819 115.874044,61.1842105 118.514585,61.1842105 Z M118.237525,56.7377731 C118.539598,56.7643247 118.829357,56.7377731 119.049081,56.9655785 C119.297666,57.2314796 119.297666,57.6747766 119.360775,58.1546301 C119.401564,58.4817155 119.488145,58.8368918 119.550869,59.1520482 L120.662959,59.1520482 C120.472865,58.6483366 120.411296,58.0649702 120.33395,57.5362463 C120.244675,56.9294067 120.159248,56.5880834 119.387326,56.4368545 L119.387326,56.4091485 C120.134235,56.2579196 120.524429,55.7545929 120.524429,55.108503 C120.524429,53.8467229 119.461594,53.5696624 118.440318,53.5696624 L116.631728,53.5696624 L116.631728,59.1520482 L117.503314,59.1520482 L117.503314,56.7377731 L118.237525,56.7377731 Z M117.503314,55.8665715 L117.503314,54.4397095 L118.551142,54.4397095 C119.247257,54.4397095 119.437736,54.6552011 119.437736,55.0719464 C119.437736,55.499851 119.247257,55.8438679 118.427619,55.8665715 L117.503314,55.8665715 Z" id="Fill-1" fill="#FFFFFF" fill-rule="nonzero" mask="url(#mask-2)"></path>
            </g>
            <g id="Fill-3-Clipped">
                <mask id="mask-4" fill="white">
                    <use xlink:href="#path-3"></use>
                </mask>
                <g id="path-23"></g>
                <path d="M84.4399826,30.6679121 C84.4399826,40.3003848 76.6268744,48.1065665 66.9970953,48.1065665 L60.3464871,48.1065665 L60.3464871,40.4781653 L66.9970953,40.4781653 C72.4197865,40.4781653 76.8131207,36.0921425 76.8131207,30.6679121 C76.8131207,25.2563803 72.4197865,20.8561197 66.9970953,20.8561197 L60.3464871,20.8561197 L60.3464871,13.234645 L66.9970953,13.234645 C76.6268744,13.234645 84.4399826,21.0392875 84.4399826,30.6679121 Z M47.2673039,13.234645 L47.2673039,27.4020606 L35.0962637,27.4020606 L30.6505958,35.0316162 L54.8980139,35.0316162 L54.8980139,13.234645 L47.2673039,13.234645 Z M134.467887,24.1319762 C134.467887,37.3731629 123.729096,48.1065665 110.483292,48.1065665 L110.483292,61.1842105 L89.7803252,61.1842105 L89.7803252,50.9822244 C84.1798535,57.2441783 76.0550521,61.1842105 66.9970953,61.1842105 L47.2673039,61.1842105 L47.2673039,48.1065665 L31.8469588,48.1065665 L24.217788,61.1842105 L0,61.1842105 L35.5976663,0.151613704 L66.9970953,0.151613704 C76.0550521,0.151613704 84.1798535,4.10434459 89.7803252,10.3647592 L89.7803252,0.151613704 L110.483292,0.151613704 C123.729096,0.151613704 134.467887,10.8934831 134.467887,24.1319762 Z M66.9970953,53.5696624 C76.1320134,53.5696624 84.0036122,48.2185452 87.6808217,40.4781653 L97.4071872,40.4781653 L97.4071872,53.5696624 L102.852197,53.5696624 L102.852197,40.4781653 L110.483292,40.4781653 C119.518545,40.4781653 126.836792,33.1576092 126.836792,24.1319762 C126.836792,15.1032646 119.518545,7.78155412 110.483292,7.78155412 L97.4071872,7.78155412 L97.4071872,27.4020606 L89.6471822,27.4020606 C88.0656281,16.3130958 78.5266634,7.78155412 66.9970953,7.78155412 L40.1630089,7.78155412 L13.4697617,53.5696624 L19.837922,53.5696624 L27.4670929,40.4781653 L54.8980139,40.4781653 L54.8980139,53.5696624 L66.9970953,53.5696624 Z M110.483292,13.234645 L102.852197,13.234645 L102.852197,20.8561197 L110.483292,20.8561197 C112.294575,20.8561197 113.750683,22.331852 113.750683,24.1319762 C113.750683,25.9459533 112.294575,27.4020606 110.483292,27.4020606 L102.852197,27.4020606 L102.852197,35.0316162 L110.483292,35.0316162 C116.504742,35.0316162 121.381778,30.1476539 121.381778,24.1319762 C121.381778,18.11322 116.504742,13.234645 110.483292,13.234645 L110.483292,13.234645 Z" id="Fill-3" fill="#FFFFFF" fill-rule="nonzero" mask="url(#mask-4)"></path>
            </g>
        </g>
    </g>
</svg>