<?xml version="1.0" encoding="UTF-8"?>
<svg width="43px" height="36px" viewBox="0 0 43 36" version="1.1" xmlns="http://www.w3.org/2000/svg" xmlns:xlink="http://www.w3.org/1999/xlink">
    <!-- Generator: Sketch 42 (36781) - http://www.bohemiancoding.com/sketch -->
    <title>User Manual</title>
    <desc>Created with Sketch.</desc>
    <defs></defs>
    <g id="Page-1" stroke="none" stroke-width="1" fill="none" fill-rule="evenodd">
        <g id="Home" transform="translate(-231.000000, -7195.000000)" fill-rule="nonzero">
            <g id="User-Manual" transform="translate(231.000000, 7195.000000)">
                <g id="Group">
                    <g transform="translate(0.000000, 3.176471)" fill="#1976D2">
                        <rect id="Rectangle-path" x="0" y="0" width="43" height="30.7058824"></rect>
                        <ellipse id="Oval" cx="21.5" cy="27.5294118" rx="5.11904762" ry="5.29411765"></ellipse>
                    </g>
                    <ellipse id="Oval" fill="#263238" cx="21.5" cy="30.7058824" rx="3.07142857" ry="3.17647059"></ellipse>
                    <polygon id="Shape" fill="#CFD8DC" points="37.8809524 0 22.5238095 3.17647059 20.4761905 3.17647059 5.11904762 0 3.07142857 5.29411765 3.07142857 30.7058824 39.9285714 30.7058824 39.9285714 5.29411765"></polygon>
                    <path d="M5.11904762,27.5294118 L20.4761905,27.5294118 L20.4761905,30.7058824 L22.5238095,30.7058824 L22.5238095,27.5294118 L37.8809524,27.5294118 L39.9285714,30.7058824 L3.07142857,30.7058824 L5.11904762,27.5294118 Z M22.5238095,3.17647059 L20.4761905,3.17647059 L20.4761905,30.7058824 L22.5238095,30.7058824 L22.5238095,3.17647059 Z" id="Shape" fill="#B0BEC5"></path>
                    <path d="M37.8809524,27.5294118 C37.8809524,27.5294118 22.5238095,27.5294118 22.5238095,30.7058824 L22.5238095,3.17647059 C22.5238095,0 37.8809524,0 37.8809524,0 L37.8809524,27.5294118 Z M5.11904762,27.5294118 C5.11904762,27.5294118 20.4761905,27.5294118 20.4761905,30.7058824 L20.4761905,3.17647059 C20.4761905,0 5.11904762,0 5.11904762,0 L5.11904762,27.5294118 Z" id="Shape" fill="#ECEFF1"></path>
                    <path d="M31.6357143,22.2352941 L28.7690476,22.2352941 L28.7690476,10.5882353 L31.6357143,10.5882353 L31.6357143,22.2352941 Z M31.7380952,6.88235294 C31.7380952,6.03529412 31.0214286,5.29411765 30.202381,5.29411765 C29.3833333,5.29411765 28.6666667,6.03529412 28.6666667,6.88235294 C28.6666667,7.72941176 29.3833333,8.47058824 30.202381,8.47058824 C31.0214286,8.47058824 31.7380952,7.72941176 31.7380952,6.88235294 L31.7380952,6.88235294 Z" id="Shape" fill="#2196F3"></path>
                </g>
            </g>
        </g>
    </g>
</svg>