<?xml version="1.0" encoding="UTF-8"?>
<svg width="350px" height="350px" viewBox="0 0 350 350" version="1.1" xmlns="http://www.w3.org/2000/svg" xmlns:xlink="http://www.w3.org/1999/xlink">
    <!-- Generator: Sketch 42 (36781) - http://www.bohemiancoding.com/sketch -->
    <title>icon--build-2</title>
    <desc>Created with Sketch.</desc>
    <defs></defs>
    <g id="Page-1" stroke="none" stroke-width="1" fill="none" fill-rule="evenodd">
        <g id="Our-Process" transform="translate(-255.000000, -5720.000000)" fill-rule="nonzero">
            <g id="icon--build-2" transform="translate(255.000000, 5720.000000)">
                <g id="Group">
                    <path d="M0,300 L0,33.3333333 C0,15 15.75,0 35,0 L227.5,0 C246.75,0 262.5,15 262.5,33.3333333 L262.5,300 C262.5,318.333333 246.75,333.333333 227.5,333.333333 L35,333.333333 C15.75,333.333333 0,318.333333 0,300 Z" id="Shape" fill="#4D4D4D"></path>
                    <path d="M227.5,25 L35,25 C29.75,25 26.25,28.3333333 26.25,33.3333333 L26.25,275 C26.25,280 29.75,283.333333 35,283.333333 L227.5,283.333333 C232.75,283.333333 236.25,280 236.25,275 L236.25,33.3333333 C236.25,28.3333333 232.75,25 227.5,25 Z" id="Shape" fill="#BBDEFB"></path>
                    <rect id="Rectangle-path" fill="#78909C" x="96.25" y="300" width="52.5" height="16.6666667"></rect>
                    <path d="M175,316.666667 L175,116.666667 C175,98.3333333 190.75,83.3333333 210,83.3333333 L315,83.3333333 C334.25,83.3333333 350,98.3333333 350,116.666667 L350,316.666667 C350,335 334.25,350 315,350 L210,350 C190.75,350 175,335 175,316.666667 Z" id="Shape" fill="#E38939"></path>
                    <path d="M315,108.333333 L210,108.333333 C204.75,108.333333 201.25,111.666667 201.25,116.666667 L201.25,300 C201.25,305 204.75,308.333333 210,308.333333 L315,308.333333 C320.25,308.333333 323.75,305 323.75,300 L323.75,116.666667 C323.75,111.666667 320.25,108.333333 315,108.333333 Z" id="Shape" fill="#FFF3E0"></path>
                    <ellipse id="Oval" fill="#A6642A" cx="262.5" cy="329.166667" rx="13.125" ry="12.5"></ellipse>
                </g>
            </g>
        </g>
    </g>
</svg>