<?xml version="1.0" encoding="UTF-8"?>
<svg width="43px" height="36px" viewBox="0 0 43 36" version="1.1" xmlns="http://www.w3.org/2000/svg" xmlns:xlink="http://www.w3.org/1999/xlink">
    <!-- Generator: Sketch 42 (36781) - http://www.bohemiancoding.com/sketch -->
    <title>Speed</title>
    <desc>Created with Sketch.</desc>
    <defs></defs>
    <g id="Page-1" stroke="none" stroke-width="1" fill="none" fill-rule="evenodd">
        <g id="Home" transform="translate(-230.000000, -7300.000000)">
            <g id="Speed" transform="translate(230.000000, 7300.000000)">
                <g id="Group">
                    <path d="M21.5,0 C9.62634211,0 0,9.62634211 0,21.5 C0,26.6520789 1.81618421,31.3764211 4.8375,35.0789474 L6.53373684,31.6842105 L36.4673947,31.6842105 L38.1625,35.0789474 C41.1838158,31.3764211 43,26.6520789 43,21.5 C43,9.62634211 33.3736579,0 21.5,0 Z" id="Shape" fill="#7986CB" fill-rule="nonzero"></path>
                    <path d="M39.6052632,21.5 C39.6052632,11.5013684 31.4986316,3.39473684 21.5,3.39473684 C11.5025,3.39473684 3.39473684,11.5013684 3.39473684,21.5 C3.39473684,25.2772105 4.55460526,28.7828421 6.53373684,31.6842105 L4.8375,35.0789474 L38.1625,35.0789474 L36.4673947,31.6842105 C38.4453947,28.7828421 39.6052632,25.2772105 39.6052632,21.5 Z" id="Shape" fill="#ECEFF1" fill-rule="nonzero"></path>
                    <g transform="translate(3.394737, 2.263158)" id="Shape" fill-rule="nonzero" fill="#455A64">
                        <path d="M0.0350789474,18.1052632 C0.0113157895,18.4809474 0,18.8543684 0,19.2368421 C0,19.6193158 0.0113157895,19.9927368 0.0350789474,20.3684211 L4.58402632,20.3684211 C4.55234211,19.995 4.52631579,19.6193158 4.52631579,19.2368421 C4.52631579,18.8543684 4.55234211,18.4786842 4.58289474,18.1052632 L0.0350789474,18.1052632 Z"></path>
                        <path d="M7.03502632,27.0617105 C6.59031579,26.4540526 6.19539474,25.8101842 5.85592105,25.1312368 L1.97347368,27.4905789 C2.32765789,28.1604737 2.70673684,28.8032105 3.139,29.4210526 L7.03502632,27.0617105 Z"></path>
                        <path d="M10.1219737,8.26957895 C10.7307632,7.826 11.3757632,7.43334211 12.0558421,7.09386842 L9.74515789,3.17407895 C9.073,3.526 8.40423684,3.92884211 7.78526316,4.35884211 L10.1219737,8.26957895 Z"></path>
                        <path d="M5.805,13.5121842 C6.12636842,12.8241842 6.49413158,12.1633421 6.92073684,11.5432368 L3.02018421,9.22123684 C2.60602632,9.85039474 2.17942105,10.5847895 1.84447368,11.2648684 L5.805,13.5121842 Z"></path>
                        <path d="M19.2368421,5.71560526 L19.2368421,1.16665789 C18.8600263,1.14289474 18.4866053,1.13157895 18.1052632,1.13157895 C17.7239211,1.13157895 17.3505,1.10781579 16.9736842,1.13157895 L16.9736842,5.71560526 C17.3482368,5.68392105 17.7239211,5.65789474 18.1052632,5.65789474 C18.4866053,5.65789474 18.8622895,5.68392105 19.2368421,5.71560526 Z"></path>
                        <path d="M29.1585263,27.1748684 L33.0964211,29.4210526 C33.5094474,28.7918947 33.9247368,28.0925789 34.2596842,27.4125 L30.2731316,25.2059211 C29.9517632,25.8939211 29.5851316,26.5547632 29.1585263,27.1748684 Z"></path>
                        <path d="M36.1754474,20.3684211 C36.1992105,19.9927368 36.2105263,19.6193158 36.2105263,19.2368421 C36.2105263,18.8543684 36.1992105,18.4809474 36.1754474,18.1052632 L31.6265,18.1052632 C31.6581842,18.4786842 31.6842105,18.8543684 31.6842105,19.2368421 C31.6842105,19.6193158 31.6581842,19.995 31.6265,20.3684211 L36.1754474,20.3684211 Z"></path>
                        <path d="M28.0756053,4.12234211 C27.4475789,3.70818421 26.7561842,3.31213158 26.0761053,2.97718421 L23.8299211,6.93657895 C24.5190526,7.25794737 25.1798947,7.62571053 25.7988684,8.05231579 L28.0756053,4.12234211 Z"></path>
                    </g>
                    <rect id="Rectangle-path" fill="#90A4AE" fill-rule="nonzero" x="16.9736842" y="27.1578947" width="9.05263158" height="2.26315789"></rect>
                    <g transform="translate(16.973684, 13.578947)" id="Shape">
                        <path d="M4.52631579,7.92105263 L18.1052632,0" stroke="#FF1744" stroke-width="2"></path>
                        <path d="M4.39844737,4.41881579 C6.23839474,4.41881579 7.72981579,5.91136842 7.72981579,7.74792105 C7.72981579,9.59126316 6.23952632,11.0815526 4.39844737,11.0815526 C2.55963158,11.0815526 1.06934211,9.59126316 1.06934211,7.74792105 C1.06934211,5.9125 2.55963158,4.41881579 4.39844737,4.41881579 Z" fill="#FF1744" fill-rule="nonzero"></path>
                    </g>
                </g>
            </g>
        </g>
    </g>
</svg>