<?xml version="1.0" encoding="UTF-8"?>
<svg width="350px" height="349px" viewBox="0 0 350 349" version="1.1" xmlns="http://www.w3.org/2000/svg" xmlns:xlink="http://www.w3.org/1999/xlink">
    <!-- Generator: Sketch 42 (36781) - http://www.bohemiancoding.com/sketch -->
    <title>icon--launch-2</title>
    <desc>Created with Sketch.</desc>
    <defs></defs>
    <g id="Page-1" stroke="none" stroke-width="1" fill="none" fill-rule="evenodd">
        <g id="Our-Process" transform="translate(-895.000000, -8097.000000)" fill-rule="nonzero" fill="#593C81">
            <g id="icon--launch-2" transform="translate(895.000000, 8097.000000)">
                <g id="Group">
                    <g transform="translate(142.157895, 27.631579)" id="Shape">
                        <path d="M168.236842,35.9210526 L139.684211,58.9473684 C159.947368,83.8157895 171,115.131579 171,146.447368 C171,222.894737 109.289474,284.605263 32.8421053,284.605263 C24.5526316,284.605263 15.3421053,283.684211 7.05263158,281.842105 L0.605263158,317.763158 C11.6578947,319.605263 22.7105263,320.526316 32.8421053,320.526316 C129.552632,320.526316 207.842105,242.236842 207.842105,145.526316 C207.842105,106.842105 194.026316,67.2368421 168.236842,35.9210526 Z"></path>
                        <polygon points="97.3157895 0 206.921053 14.7368421 116.657895 105"></polygon>
                    </g>
                    <g id="Shape">
                        <path d="M175,0 C78.2894737,0 0,78.2894737 0,175 C0,217.368421 14.7368421,257.894737 42.3684211,289.210526 L70,265.263158 C48.8157895,240.394737 36.8421053,208.157895 36.8421053,175 C36.8421053,98.5526316 98.5526316,36.8421053 175,36.8421053 C183.289474,36.8421053 192.5,37.7631579 200.789474,39.6052632 L207.236842,3.68421053 C197.105263,0.921052632 186.052632,0 175,0 Z"></path>
                        <polygon points="110.526316 322.368421 0.921052632 307.631579 91.1842105 217.368421"></polygon>
                    </g>
                </g>
            </g>
        </g>
    </g>
</svg>