<?xml version="1.0" encoding="UTF-8"?>
<svg width="87px" height="114px" viewBox="0 0 87 114" version="1.1" xmlns="http://www.w3.org/2000/svg" xmlns:xlink="http://www.w3.org/1999/xlink">
    <!-- Generator: Sketch 42 (36781) - http://www.bohemiancoding.com/sketch -->
    <title>Concept</title>
    <desc>Created with Sketch.</desc>
    <defs></defs>
    <g id="Page-1" stroke="none" stroke-width="1" fill="none" fill-rule="evenodd">
        <g id="Our-Process" transform="translate(-536.000000, -2021.000000)" fill-rule="nonzero">
            <g id="Concept" transform="translate(536.000000, 2021.000000)">
                <g id="Group">
                    <polygon id="Shape" fill="#64B5F6" points="87 114 0 114 0 0 59.8125 0 87 27.1428571"></polygon>
                    <path d="M65.25,59.7142857 C65.25,46.9571429 54.103125,36.6428571 41.053125,38.2714286 C30.99375,39.3571429 22.8375,47.5 22.021875,57.5428571 C21.20625,65.1428571 24.46875,72.2 29.90625,76.5428571 C32.353125,78.4428571 35.615625,81.1571429 35.615625,84.1428571 L51.928125,84.1428571 C51.928125,80.8857143 55.190625,78.4428571 57.6375,76.5428571 C62.259375,72.4714286 65.25,66.5 65.25,59.7142857" id="Shape" fill="#FFEA00"></path>
                    <polygon id="Shape" fill="#BBDEFB" points="82.921875 29.8571429 57.09375 29.8571429 57.09375 4.07142857"></polygon>
                    <polygon id="Shape" fill="#FFFFFF" points="52.74375 57 48.9375 53.2 43.5 58.6285714 38.0625 53.2 34.25625 57 39.69375 62.4285714 40.78125 63.5142857 40.78125 86.8571429 46.21875 86.8571429 46.21875 63.5142857"></polygon>
                    <path d="M35.34375,84.1428571 L35.34375,92.2857143 C35.34375,95 37.246875,97.1714286 39.69375,97.7142857 C40.2375,99.3428571 41.86875,100.428571 43.5,100.428571 C45.403125,100.428571 46.7625,99.3428571 47.30625,97.7142857 C49.753125,97.1714286 51.65625,95 51.65625,92.2857143 L51.65625,84.1428571 L35.34375,84.1428571 Z" id="Shape" fill="#283593"></path>
                    <path d="M51.65625,92.2857143 L51.65625,87.1285714 L35.34375,89.3 L35.34375,92.2857143 C35.34375,93.1 35.615625,93.9142857 35.8875,94.7285714 L51.65625,92.8285714 L51.65625,92.2857143 Z" id="Shape" fill="#5C6BC0"></path>
                </g>
            </g>
        </g>
    </g>
</svg>