<?xml version="1.0" encoding="UTF-8"?>
<svg width="124px" height="134px" viewBox="0 0 124 134" version="1.1" xmlns="http://www.w3.org/2000/svg" xmlns:xlink="http://www.w3.org/1999/xlink">
    <!-- Generator: Sketch 42 (36781) - http://www.bohemiancoding.com/sketch -->
    <title>For Experienced</title>
    <desc>Created with Sketch.</desc>
    <defs></defs>
    <g id="Page-1" stroke="none" stroke-width="1" fill="none" fill-rule="evenodd">
        <g id="Our-Process" transform="translate(-194.000000, -2014.000000)" fill-rule="nonzero">
            <g id="For-Experienced" transform="translate(194.000000, 2014.000000)">
                <g id="Group">
                    <path d="M80.4324324,134 L80.4324324,118.59 L89.1459459,120.265 C98.8648649,122.275 107.913514,115.24 108.583784,105.525 L110.594595,83.75 L120.313514,79.73 C123.664865,78.39 125.005405,74.37 122.994595,71.02 L110.594595,50.25 C108.583784,24.79 94.172973,0 56.972973,0 C18.7675676,0 0,28.14 0,56.95 C0,69.345 4.35675676,80.065 11.0594595,89.11 C17.0918919,97.485 20.1081081,107.535 20.1081081,117.585 L20.1081081,133.665 L80.4324324,133.665 L80.4324324,134 Z" id="Shape" fill="#F8BBD0"></path>
                    <path d="M79.427027,63.315 C79.427027,62.31 79.7621622,61.305 79.7621622,60.3 C79.7621622,59.295 79.7621622,58.29 79.427027,57.285 L85.7945946,52.595 C86.4648649,52.26 86.4648649,51.255 86.1297297,50.585 L80.0972973,39.865 C79.7621622,39.195 78.7567568,38.86 78.0864865,39.195 L71.0486486,42.545 C69.372973,41.205 67.6972973,40.2 65.6864865,39.53 L65.0162162,31.825 C65.0162162,31.155 64.3459459,30.485 63.6756757,30.485 L51.2756757,30.485 C50.6054054,30.485 49.9351351,31.155 49.9351351,31.825 L49.2648649,39.53 C47.2540541,40.2 45.5783784,41.54 43.9027027,42.545 L36.8648649,39.195 C36.1945946,38.86 35.1891892,39.195 34.8540541,39.865 L28.8216216,50.585 C28.4864865,51.255 28.4864865,52.26 29.1567568,52.595 L35.5243243,57.285 C35.5243243,58.29 35.1891892,59.295 35.1891892,60.3 C35.1891892,61.305 35.1891892,62.31 35.5243243,63.315 L29.1567568,68.005 C28.4864865,68.34 28.4864865,69.345 28.8216216,70.015 L34.8540541,80.735 C35.1891892,81.405 36.1945946,81.74 36.8648649,81.405 L43.9027027,78.055 C45.5783784,79.395 47.2540541,80.4 49.2648649,81.07 L49.9351351,88.775 C49.9351351,89.445 50.6054054,90.115 51.2756757,90.115 L63.6756757,90.115 C64.3459459,90.115 65.0162162,89.445 65.0162162,88.775 L65.6864865,81.07 C67.6972973,80.4 69.372973,79.06 71.0486486,78.055 L78.0864865,81.405 C78.7567568,81.74 79.7621622,81.405 80.0972973,80.735 L86.1297297,70.015 C86.4648649,69.345 86.4648649,68.34 85.7945946,68.005 L79.427027,63.315 Z M56.972973,72.025 C50.6054054,72.025 45.2432432,67 45.2432432,60.3 C45.2432432,53.935 50.2702703,48.575 56.972973,48.575 C63.3405405,48.575 68.7027027,53.6 68.7027027,60.3 C68.7027027,66.665 63.3405405,72.025 56.972973,72.025 Z" id="Shape" fill="#E91E63"></path>
                </g>
            </g>
        </g>
    </g>
</svg>