<?xml version="1.0" encoding="UTF-8"?>
<svg width="350px" height="350px" viewBox="0 0 350 350" version="1.1" xmlns="http://www.w3.org/2000/svg" xmlns:xlink="http://www.w3.org/1999/xlink">
    <!-- Generator: Sketch 42 (36781) - http://www.bohemiancoding.com/sketch -->
    <title>icon--build-1</title>
    <desc>Created with Sketch.</desc>
    <defs></defs>
    <g id="Page-1" stroke="none" stroke-width="1" fill="none" fill-rule="evenodd">
        <g id="Our-Process" transform="translate(-895.000000, -5065.000000)" fill-rule="nonzero">
            <g id="icon--build-1" transform="translate(895.000000, 5065.000000)">
                <g id="Group">
                    <g id="Shape" fill="#FB823C">
                        <path d="M325.354167,108.15 C343.204167,106.448611 348.1625,92.5555556 349.484722,83.2902778 C348.930556,64.8666667 343.058333,45.8597222 310.284722,38.5291667 L0,0 L0,96.2986111 L191.683333,119.661111 L325.354167,108.15 Z"></path>
                        <path d="M350,350 L39.3652778,313.415278 C8.1375,307.193056 0,286.144444 0,269.169444 L0,179.977778 L0,177.838889 C0,178.908333 0.291666667,204.195833 25.725,209.280556 L350,245.398611 L350,350 Z"></path>
                    </g>
                    <path d="M25.725,209.280556 L148.380556,222.940278 L307.270833,208.590278 C338.469444,205.527778 349.552778,183.263889 349.552778,165.122222 L350,76.9027778 C350,83.6791667 348.211111,105.972222 325.354167,108.15 L39.6763889,132.756944 C39.2291667,132.805556 38.7916667,132.863889 38.3541667,132.961111 C8.06944444,139.766667 0,159.055556 0,175.554167 L0,177.838889 C0,178.908333 0.291666667,204.195833 25.725,209.280556 Z" id="Shape" fill="#FFCA28"></path>
                    <g transform="translate(29.166667, 106.944444)" id="Shape" fill="#ED8F29">
                        <polygon points="252.777778 4.9875 233.333333 6.65972222 233.333333 68.0555556 252.777778 68.0555556"></polygon>
                        <polygon points="58.2166667 21.7 38.8888889 23.3722222 38.8888889 66.0916667 58.2166667 66.0916667"></polygon>
                        <polygon points="213.568056 8.32222222 194.444444 9.99444444 194.444444 47.9791667 213.568056 47.9791667"></polygon>
                        <path d="M10.5097222,25.8125 C10.0625,25.8611111 9.625,25.9194444 9.1875,26.0166667 C5.85277778,26.7652778 2.87777778,27.7375 0,28.7875 L0,87.5 L19.3861111,87.5 L19.3861111,25.0541667 L10.5097222,25.8125 Z"></path>
                        <polygon points="97.0569444 18.375 77.7777778 20.0375 77.7777778 57.9638889 97.0569444 57.9638889"></polygon>
                        <polygon points="175 11.6666667 155.555556 13.3388889 155.555556 58.3333333 175 58.3333333"></polygon>
                        <polygon points="291.6375 1.63333333 272.222222 3.31527778 272.611111 38.8888889 291.6375 38.8888889"></polygon>
                        <polygon points="136.111111 15.0208333 116.666667 16.6930556 116.666667 77.7777778 136.111111 77.7777778"></polygon>
                    </g>
                    <g transform="translate(29.166667, 0.000000)" id="Shape" fill="#B75F00">
                        <polygon points="213.888889 233.508333 194.483333 231.340278 194.483333 267.8375 213.888889 267.8375"></polygon>
                        <polygon points="252.777778 237.727778 233.352778 235.559722 233.352778 291.666667 252.777778 291.666667"></polygon>
                        <polygon points="19.4444444 211.876389 0.0194444444 209.708333 0.0194444444 267.8375 19.4444444 267.8375"></polygon>
                        <polygon points="174.970833 228.977778 155.555556 226.809722 155.555556 262.5 174.970833 262.5"></polygon>
                        <polygon points="136.111111 224.845833 116.686111 222.6875 116.686111 277.452778 136.111111 277.452778"></polygon>
                        <polygon points="58.3333333 216.193056 38.9180556 214.044444 38.9180556 248.616667 58.3333333 248.616667"></polygon>
                        <polygon points="272.222222 239.166667 272.222222 272.222222 291.6375 272.222222 291.6375 241.325"></polygon>
                        <polygon points="97.2222222 220.529167 77.7972222 218.361111 77.7972222 253.75 97.2222222 253.75"></polygon>
                        <polygon points="174.980556 25.3166667 155.565278 22.9055556 155.565278 62.1541667 174.980556 62.1541667"></polygon>
                        <polygon points="136.091667 20.4944444 116.666667 18.0833333 116.666667 76.9027778 136.091667 76.9027778"></polygon>
                        <polygon points="213.869444 30.1388889 194.463889 27.7277778 194.463889 67.2875 213.869444 67.2875"></polygon>
                        <polygon points="19.425 6.02777778 0 3.61666667 0 67.2875 19.425 67.2875"></polygon>
                        <polygon points="97.2027778 15.6722222 77.7777778 13.2611111 77.7777778 53.2 97.2027778 53.2"></polygon>
                        <polygon points="58.3138889 10.85 38.8986111 8.43888889 38.8986111 48.0666667 58.3138889 48.0666667"></polygon>
                        <path d="M291.248611,41.5138889 C288.176389,40.3861111 284.851389,39.3652778 281.118056,38.5388889 L272.222222,37.3819444 L272.222222,72.4986111 L291.248611,72.4986111 L291.248611,41.5138889 Z"></path>
                        <polygon points="252.758333 34.9708333 233.333333 32.55 233.333333 91.2138889 252.758333 91.2138889"></polygon>
                    </g>
                </g>
            </g>
        </g>
    </g>
</svg>