<?xml version="1.0" encoding="UTF-8"?>
<svg width="342px" height="333px" viewBox="0 0 342 333" version="1.1" xmlns="http://www.w3.org/2000/svg" xmlns:xlink="http://www.w3.org/1999/xlink">
    <!-- Generator: Sketch 42 (36781) - http://www.bohemiancoding.com/sketch -->
    <title>icon--process-3</title>
    <desc>Created with Sketch.</desc>
    <defs></defs>
    <g id="Page-1" stroke="none" stroke-width="1" fill="none" fill-rule="evenodd">
        <g id="Our-Process" transform="translate(-895.000000, -4056.000000)" fill-rule="nonzero">
            <g id="icon--process-3" transform="translate(895.000000, 4056.000000)">
                <g id="Group">
                    <ellipse id="Oval" fill="#2196F3" cx="62.8205128" cy="62.8205128" rx="62.8205128" ry="62.8205128"></ellipse>
                    <g transform="translate(35.897436, 26.923077)" id="Shape" fill="#FFA726">
                        <path d="M135.351282,187.214103 C141.75,199.885897 157.634615,204.866667 170.65641,198.270513 C183.705128,191.683333 189.134615,175.942308 182.735897,163.279487 L154.14359,106.570513 C147.753846,93.9166667 131.869231,88.9269231 118.838462,95.5320513 C105.798718,102.110256 100.360256,117.842308 106.75,130.514103 L135.351282,187.214103 Z"></path>
                        <path d="M182.987179,163.638462 C189.385897,176.292308 205.270513,181.291026 218.319231,174.694872 C231.358974,168.116667 236.779487,152.366667 230.380769,139.694872 L201.788462,82.9948718 C195.389744,70.3410256 179.532051,65.3423077 166.483333,71.9474359 C153.44359,78.5166667 148.005128,94.2487179 154.385897,106.929487 L182.987179,163.638462 Z"></path>
                        <path d="M230.641026,140.062821 C237.030769,152.74359 252.90641,157.70641 265.955128,151.137179 C278.985897,144.55 284.424359,128.791026 278.016667,116.137179 L249.415385,59.4192308 C243.025641,46.7474359 227.167949,41.7846154 214.119231,48.3628205 C201.079487,54.95 195.641026,70.7 202.021795,83.3628205 L230.641026,140.062821 Z"></path>
                        <g>
                            <path d="M289.108974,138.39359 C286.353846,132.937179 289.530769,139.228205 292.528205,145.169231 C293.928205,147.969231 291.630769,143.392308 289.108974,138.39359 Z"></path>
                            <path d="M115.00641,127.202564 C110.644872,129.410256 105.305128,127.678205 103.124359,123.289744 L51.2525641,20.4525641 C46.8282051,11.6935897 31.4282051,0.798717949 15.6333333,8.77692308 C-0.161538462,16.7641026 -0.134615385,36.4628205 3.85,44.3782051 C6.03076923,48.7038462 34.4076923,104.991026 59.724359,155.139744 C80.7153846,196.735897 99.5525641,234.141026 99.5525641,234.141026 L49.9871795,219.557692 C33.5641026,214.146154 16.8987179,221.334615 12.7435897,240.216667 C8.57051282,256.074359 19.5820513,271.842308 34.2102564,276.616667 L101.517949,298.711538 C136.203846,310.1 172.217949,305.971795 204.929487,289.378205 L209.820513,286.910256 L216.658974,284.173077 L259.798718,262.365385 L271.196154,255.320513 C303.019231,232.220513 314.784615,189.278205 296.494872,153.039744 C296.494872,153.039744 294.55641,149.180769 292.546154,145.178205 C290.975641,142.091026 284.855128,129.957692 269.212821,98.9333333 L115.00641,127.202564 Z"></path>
                        </g>
                    </g>
                    <g transform="translate(44.871795, 35.897436)" id="Shape" fill="#FFCDD2">
                        <path d="M3.22179487,32.3076923 C-1.36410256,22.9923077 2.01025641,11.9358974 10.8141026,7.61923077 C19.5730769,3.32051282 30.4320513,7.40384615 34.9730769,16.6923077 C39.5679487,26.0076923 7.79871795,41.5961538 3.22179487,32.3076923"></path>
                        <path d="M25.8641026,256.711538 C15.2923077,253.875641 9.04615385,243.007692 11.8551282,232.417949 C14.7179487,221.846154 25.5948718,215.591026 36.1487179,218.426923 C46.7294872,221.280769 36.4448718,259.574359 25.8641026,256.711538"></path>
                    </g>
                </g>
            </g>
        </g>
    </g>
</svg>