<?xml version="1.0" encoding="UTF-8"?>
<svg width="180px" height="68px" viewBox="0 0 180 68" version="1.1" xmlns="http://www.w3.org/2000/svg" xmlns:xlink="http://www.w3.org/1999/xlink">
    <!-- Generator: Sketch 42 (36781) - http://www.bohemiancoding.com/sketch -->
    <title>logo--nfm</title>
    <desc>Created with Sketch.</desc>
    <defs>
        <polygon id="path-1" points="0.346153846 8.05384615 17.0319231 8.05384615 17.0319231 0.235 0.346153846 0.235"></polygon>
    </defs>
    <g id="Page-1" stroke="none" stroke-width="1" fill="none" fill-rule="evenodd">
        <g id="logo--nfm">
            <path d="M75.2203846,48.9096154 L179.811154,48.9103846 L179.811154,54.395 L75.2196154,54.3942308 L75.2203846,48.9096154 Z M123.435385,32.91 L123.435385,31.6530769 C123.435385,30.7623077 123.391538,30.1934615 123.289615,29.9292308 C123.211538,29.6607692 123.006923,29.5353846 122.715769,29.5353846 C122.341923,29.5353846 122.116923,29.6607692 122.049231,29.8773077 C121.948077,30.0861538 121.914615,30.6765385 121.914615,31.6530769 L121.914615,32.91 L123.435385,32.91 Z M128.713846,35.7119231 L121.914615,35.7119231 L121.914615,39.4453846 C121.914615,40.2311538 121.959231,40.7319231 122.06,40.9423077 C122.183077,41.1707692 122.399231,41.2888462 122.726538,41.2888462 C123.12,41.2888462 123.391538,41.1369231 123.516923,40.8469231 C123.661538,40.5465385 123.718846,39.9626923 123.718846,39.0965385 L123.718846,36.8303846 L128.713846,36.8303846 L128.713846,38.0969231 C128.713846,39.175 128.645769,39.9965385 128.500385,40.5569231 C128.375,41.1288462 128.069615,41.7573077 127.563462,42.3892308 C127.078462,43.0465385 126.455769,43.5334615 125.691538,43.8638462 C124.935,44.1769231 123.977692,44.3507692 122.826538,44.3507692 C121.723077,44.3507692 120.730769,44.1769231 119.884231,43.8638462 C119.038462,43.5476923 118.384231,43.1026923 117.888846,42.5438462 C117.425769,41.9880769 117.098462,41.3630769 116.918077,40.6907692 C116.737692,40.0288462 116.637692,39.0561538 116.637692,37.77 L116.637692,32.7453846 C116.637692,31.2415385 116.851538,30.0626923 117.245385,29.1934615 C117.674615,28.32 118.34,27.6438462 119.265769,27.1826923 C120.200385,26.7192308 121.26,26.4961538 122.455,26.4961538 C123.931923,26.4961538 125.162308,26.7776923 126.097308,27.3357692 C127.078462,27.8919231 127.743846,28.625 128.116923,29.5465385 C128.511154,30.4676923 128.713846,31.7619231 128.713846,33.4334615 L128.713846,35.7119231 Z M112.664615,26.7703846 L112.448077,29.0042308 C113.214615,27.3830769 114.331923,26.5434615 115.764231,26.4661538 L115.764231,32.4711538 C114.805769,32.4711538 114.118846,32.5907692 113.644231,32.8542308 C113.203846,33.1030769 112.921923,33.4711538 112.822308,33.9203846 C112.718846,34.3769231 112.664615,35.4488462 112.664615,37.0934615 L112.664615,43.8315385 L107.398462,43.8315385 L107.398462,26.7703846 L112.664615,26.7703846 Z M105.503077,26.7703846 L105.503077,43.8315385 L100.159615,43.8315385 L100.258462,42.4146154 C99.8880769,42.9976923 99.4369231,43.4303846 98.8957692,43.7115385 C98.3661538,44.005 97.7576923,44.1284615 97.0576923,44.1284615 C96.2684615,44.1284615 95.625,44.005 95.0969231,43.7423077 C94.5780769,43.4634615 94.1923077,43.0865385 93.9457692,42.6303846 C93.6861538,42.1907692 93.5392308,41.7238462 93.4946154,41.2219231 C93.4153846,40.7319231 93.3923077,39.7511538 93.3923077,38.2796154 L93.3923077,26.7703846 L98.6465385,26.7703846 L98.6465385,38.38 C98.6465385,39.7065385 98.6823077,40.5046154 98.7596154,40.735 C98.8380769,40.9957692 99.0761538,41.1153846 99.4476923,41.1153846 C99.8315385,41.1153846 100.057308,40.9776923 100.135769,40.7319231 C100.204231,40.4865385 100.258462,39.6465385 100.258462,38.2465385 L100.258462,26.7703846 L105.503077,26.7703846 Z M90.7873077,24.4819231 L90.7873077,27.175 L92.2196154,27.175 L92.2196154,29.8773077 L90.7873077,29.8773077 L90.7873077,39.0042308 C90.7873077,40.1373077 90.8557692,40.7538462 90.9565385,40.8884615 C91.0807692,41.0257692 91.5665385,41.0815385 92.4230769,41.0815385 L92.4230769,43.8315385 L90.3153846,43.8315385 C89.1073077,43.8315385 88.2626923,43.7903846 87.7442308,43.6896154 C87.2361538,43.5888462 86.7965385,43.3626923 86.3915385,42.9976923 C85.9953846,42.6423077 85.7484615,42.2292308 85.6688462,41.78 C85.5684615,41.3261538 85.5211538,40.2415385 85.5211538,38.5357692 L85.5211538,29.8773077 L84.3942308,29.8773077 L84.3942308,27.175 L85.5211538,27.175 L85.5211538,24.4819231 L90.7873077,24.4819231 Z M77.7092308,43.8315385 L83.1096154,43.8315385 L83.1096154,26.7703846 L77.7092308,26.7703846 L77.7092308,43.8315385 Z M77.7092308,25.7269231 L83.1096154,25.7269231 L83.1096154,23.0103846 L77.7092308,23.0103846 L77.7092308,25.7269231 Z M69.0380769,26.7703846 L68.9473077,28.3311538 C69.3426923,27.6996154 69.7938462,27.2346154 70.3469231,26.9303846 C70.8861538,26.6184615 71.5296154,26.4661538 72.2503846,26.4661538 C73.1530769,26.4661538 73.8988462,26.6592308 74.4726923,27.0865385 C75.0357692,27.5103846 75.4088462,28.0346154 75.5780769,28.6880769 C75.7465385,29.3092308 75.8130769,30.3684615 75.8130769,31.8792308 L75.8130769,43.8315385 L70.5596154,43.8315385 L70.5596154,32.0219231 C70.5596154,30.8357692 70.5253846,30.1192308 70.4476923,29.8734615 C70.3676923,29.6015385 70.1542308,29.4865385 69.7938462,29.4865385 C69.4211538,29.4865385 69.1853846,29.6173077 69.0938462,29.9292308 C68.9923077,30.2115385 68.9473077,31.01 68.9473077,32.2969231 L68.9473077,43.8315385 L63.6819231,43.8315385 L63.6819231,26.7703846 L69.0380769,26.7703846 Z M59.1711538,26.7703846 L58.9453846,29.0042308 C59.7126923,27.3830769 60.8180769,26.5434615 62.2615385,26.4661538 L62.2615385,32.4711538 C61.3026923,32.4711538 60.5919231,32.5907692 60.1419231,32.8542308 C59.6892308,33.1030769 59.4188462,33.4711538 59.3069231,33.9203846 C59.205,34.3769231 59.1711538,35.4488462 59.1711538,37.0934615 L59.1711538,43.8315385 L53.8834615,43.8315385 L53.8834615,26.7703846 L59.1711538,26.7703846 Z M51.7861538,26.7703846 L51.7861538,43.8315385 L46.4630769,43.8315385 L46.565,42.4146154 C46.2046154,42.9976923 45.7523077,43.4303846 45.2123077,43.7115385 C44.6826923,44.005 44.0742308,44.1284615 43.3861538,44.1284615 C42.6076923,44.1284615 41.9534615,44.005 41.4346154,43.7423077 C40.9169231,43.4634615 40.5330769,43.0865385 40.2838462,42.6303846 C40.0365385,42.1907692 39.8892308,41.7238462 39.8326923,41.2219231 C39.7669231,40.7319231 39.7426923,39.7511538 39.7426923,38.2796154 L39.7426923,26.7703846 L44.9630769,26.7703846 L44.9630769,38.38 C44.9630769,39.7065385 44.9965385,40.5046154 45.0880769,40.735 C45.1653846,40.9957692 45.4034615,41.1153846 45.7523077,41.1153846 C46.1361538,41.1153846 46.3738462,40.9776923 46.4403846,40.7319231 C46.5207692,40.4865385 46.565,39.6465385 46.565,38.2465385 L46.565,26.7703846 L51.7861538,26.7703846 Z M29.3453846,23.0103846 L38.6276923,23.0103846 L38.6276923,27.175 L34.815,27.175 L34.815,31.1330769 L38.2092308,31.1330769 L38.2092308,35.0792308 L34.815,35.0792308 L34.815,43.8315385 L29.3453846,43.8315385 L29.3453846,23.0103846 L29.3453846,23.0103846 Z" id="Fill-1" fill="#00653A"></path>
            <polyline id="Fill-2" fill="#00653A" points="34.8253846 54.3942308 29.3484615 54.395 29.3476923 48.9180769 34.8246154 48.9173077 34.8253846 54.3942308"></polyline>
            <polyline id="Fill-3" fill="#00653A" points="46.2934615 54.3926923 40.8165385 54.3926923 40.8165385 48.9157692 46.2923077 48.915 46.2934615 54.3926923"></polyline>
            <polyline id="Fill-4" fill="#00653A" points="57.7619231 54.3903846 52.2846154 54.3903846 52.2834615 48.915 57.7592308 48.9126923 57.7619231 54.3903846"></polyline>
            <g id="Group-8" fill="#00653A">
                <polyline id="Fill-5" points="69.2284615 54.3873077 63.7526923 54.3896154 63.7511538 48.9126923 69.2284615 48.9111538 69.2284615 54.3873077"></polyline>
                <path d="M88.155,10.5946154 C87.4573077,10.5946154 87.0061538,10.9073077 86.0911538,11.7238462 C84.2311538,13.3492308 82.4492308,17.1015385 82.4492308,19.1303846 C82.4492308,19.4807692 82.6192308,19.6842308 82.8903846,19.6842308 C83.1830769,19.6842308 84.0619231,19.3169231 85.7084615,17.8234615 C87.93,15.7823077 89.1584615,13.3153846 89.6226923,11.6326923 C89.4084615,11.0823077 88.9223077,10.5946154 88.155,10.5946154 Z M90.3426923,10.2753846 L91.1642308,8.44692308 C91.6611538,8.22769231 92.4057692,8.49961538 92.5869231,8.87076923 C92.1576923,9.94115385 89.6226923,16.2738462 88.6961538,18.8742308 C88.5053846,19.3880769 88.6519231,19.5438462 88.8869231,19.5438462 C89.385,19.5438462 90.2296154,19.0488462 91.8761538,17.6257692 C92.1011538,17.6257692 92.3046154,17.7565385 92.3046154,17.9938462 C91.0765385,19.5984615 89.0115385,21.2007692 87.4103846,21.2007692 C86.7334615,21.2007692 86.5646154,20.6465385 86.5646154,20.4242308 C86.5646154,20.2161538 86.6215385,19.9780769 86.8580769,19.3169231 L87.8061538,16.7303846 L87.7265385,16.7080769 C85.6515385,19.2280769 82.6757692,21.2007692 81.3219231,21.2007692 C80.4988462,21.2007692 80.0369231,20.4023077 80.0369231,19.5984615 C80.0369231,18.9338462 80.6780769,16.6419231 82.5965385,14.0284615 C83.9953846,12.1488462 85.2453846,10.9926923 86.4430769,10.3392308 C87.5811538,9.69923077 88.3026923,9.51 89.0688462,9.51 C89.385,9.51 89.5876923,9.58884615 89.7573077,9.68423077 C89.8807692,9.74038462 90.2088462,10.0003846 90.3426923,10.2753846 Z M79.0453846,11.1376923 C79.0565385,10.7876923 78.7965385,10.3834615 78.1423077,10.3834615 C77.3869231,10.3534615 76.3053846,10.9738462 75.3126923,11.7807692 C74.2296154,12.65 73.0015385,14.0253846 72.6053846,14.8419231 C72.4830769,15.1169231 72.5046154,15.3146154 72.8880769,15.2776923 C73.4969231,15.2288462 75.1203846,14.7861538 77.1619231,13.4896154 C78.3911538,12.7203846 79.0323077,11.7288462 79.0453846,11.1376923 Z M68.7057692,20.2753846 L74.2523077,4.63769231 C74.9523077,2.64615385 74.9861538,2.27884615 74.5007692,2.03692308 L73.9938462,1.77269231 C73.8130769,1.65538462 73.7896154,1.48769231 73.9357692,1.34576923 C74.8161538,0.955769231 76.2369231,0.595384615 77.4661538,0.368461538 L77.635,0.527692308 C77.3976923,1.31192308 77.0261538,2.27884615 76.1588462,4.69769231 L73.0457692,13.0884615 L73.1011538,13.0884615 C73.9588462,11.9842308 74.9176923,11.0265385 76.1023077,10.1980769 C76.9142308,9.63692308 77.9834615,9.14615385 79.2257692,9.16423077 C80.8823077,9.18615385 81.2757692,10.1746154 81.2757692,10.7807692 C81.265,11.1076923 81.13,11.8769231 80.0596154,12.825 C78.6834615,14.0284615 77.2411538,14.9757692 75.4023077,15.2665385 C75.1876923,15.3819231 75.2430769,15.6307692 75.3023077,15.8019231 C75.5165385,16.6223077 76.0123077,17.8934615 76.3165385,18.4996154 C76.6546154,19.1303846 76.9369231,19.4469231 77.2173077,19.4469231 C77.6023077,19.4657692 78.1530769,19.0973077 78.9892308,18.1388462 C79.2357692,18.1576923 79.3596154,18.28 79.3488462,18.4996154 C78.2996154,20.6134615 76.8561538,21.1634615 76.3834615,21.1488462 C75.8638462,21.1488462 75.5165385,20.7884615 75.0857692,19.9930769 C74.7357692,19.3573077 74.0611538,17.6926923 73.8130769,16.9123077 C73.5973077,16.155 73.2815385,15.8569231 72.7642308,15.9538462 C72.19,16.0838462 72.0434615,16.2173077 71.6719231,17.0692308 L70.1130769,20.6765385 C69.9892308,20.9257692 69.8673077,21.0326923 69.6165385,21.0326923 C69.2915385,21.0326923 68.4680769,20.9257692 68.7057692,20.2753846 Z M67.4523077,9.14615385 C68.5469231,9.14615385 69.2138462,10.0673077 69.2138462,10.7807692 C69.2138462,11.2226923 68.9196154,11.5492308 68.6803846,11.6734615 C68.4784615,11.7238462 68.31,11.6734615 68.1307692,11.4315385 C67.6330769,10.9407692 67.2623077,10.5173077 66.3480769,10.5173077 C65.5026923,10.5173077 65.1534615,11.2226923 65.1534615,11.6734615 C65.1534615,12.2607692 65.2992308,12.8619231 66.1338462,14.2734615 C66.8880769,15.4669231 67.3176923,16.1834615 67.2623077,17.4403846 C67.2276923,18.2207692 66.8219231,19.2726923 65.7384615,20.1934615 C64.9734615,20.8507692 63.8884615,21.2234615 62.7734615,21.2234615 C61.6688462,21.2234615 61.0038462,20.3611538 61.0038462,19.7030769 C61.0038462,19.4234615 61.1165385,19.0973077 61.4311538,18.7661538 C61.6688462,18.5588462 61.9961538,18.5588462 62.2323077,18.7661538 C62.6042308,19.1757692 63.4846154,19.9003846 64.2392308,19.9003846 C64.9503846,19.9003846 65.6373077,19.1757692 65.6373077,18.28 C65.6373077,17.7903846 65.2992308,16.9123077 64.5653846,15.7492308 C63.8015385,14.5488462 63.5396154,13.5715385 63.5396154,13.0884615 C63.5396154,11.9842308 64.0365385,11.1376923 65.2992308,10.0907692 C66.1338462,9.37923077 67.0803846,9.14615385 67.4523077,9.14615385 Z M56.9896154,10.6253846 C56.3007692,10.6253846 55.8280769,10.9407692 54.9261538,11.7573077 C53.0538462,13.3934615 51.2484615,17.1976923 51.2484615,19.2492308 C51.2484615,19.5984615 51.4292308,19.8034615 51.69,19.8034615 C51.9953846,19.8034615 52.8738462,19.4423077 54.5423077,17.915 C56.765,15.8569231 58.0042308,13.3634615 58.4646154,11.6734615 C58.2515385,11.1076923 57.7561538,10.6253846 56.9896154,10.6253846 Z M59.1996154,10.31 L60.0123077,8.43576923 C60.53,8.21346154 61.2842308,8.49961538 61.4538462,8.87076923 C61.0265385,9.94846154 58.4646154,16.3576923 57.53,18.9892308 C57.3492308,19.4807692 57.4973077,19.6669231 57.7342308,19.6669231 C58.2296154,19.6669231 59.0861538,19.1607692 60.7557692,17.7226923 C60.9584615,17.7226923 61.1619231,17.8565385 61.1619231,18.0907692 C59.9319231,19.7180769 57.845,21.3384615 56.2346154,21.3384615 C55.5673077,21.3384615 55.3984615,20.7884615 55.3984615,20.5773077 C55.3984615,20.3611538 55.4565385,20.1011538 55.6919231,19.4423077 L56.6507692,16.8161538 L56.5723077,16.7934615 C54.4853846,19.3392308 51.4984615,21.3384615 50.1215385,21.3384615 C49.2992308,21.3384615 48.825,20.5353846 48.825,19.7180769 C48.825,19.0488462 49.4792308,16.7303846 51.3961538,14.0923077 C52.8061538,12.1819231 54.0680769,11.0265385 55.2646154,10.3534615 C56.415,9.71730769 57.1473077,9.52423077 57.9019231,9.52423077 C58.2296154,9.52423077 58.4430769,9.60307692 58.6123077,9.68884615 C58.7376923,9.75538462 59.0530769,10.0042308 59.1996154,10.31 Z M45.1596154,9.06461538 C46.6488462,9.06461538 46.1088462,11.0265385 45.8492308,11.795 L44.5753846,15.4407692 L44.7207692,15.4407692 C45.6011538,13.8165385 47.0557692,11.5207692 47.8315385,10.5734615 C48.5084615,9.69923077 49.255,9.06461538 49.9988462,9.06461538 C51.0238462,9.06461538 51.1707692,10.0484615 51.1707692,10.4911538 C51.1707692,10.9184615 50.9011538,11.7573077 50.5523077,12.2080769 C50.1907692,12.65 49.7269231,12.665 49.6034615,12.0669231 C49.4680769,11.3234615 49.2757692,10.9407692 48.9823077,10.9407692 C48.7130769,10.9407692 48.3965385,11.2226923 47.9465385,11.795 C46.1423077,14.0615385 44.4953846,17.5657692 42.9165385,20.8846154 C42.8057692,21.1115385 42.6588462,21.2234615 42.4088462,21.2234615 C42.0923077,21.2234615 41.2253846,21.1115385 41.4392308,20.4723077 C41.8242308,19.3242308 43.6826923,14.2334615 44.4953846,11.4080769 C44.5753846,11.0926923 44.5173077,10.7996154 44.2596154,10.7996154 C43.4807692,10.7996154 42.6807692,11.5988462 42.1403846,12.3034615 C41.8580769,12.3496154 41.6438462,12.1819231 41.6653846,11.8438462 C42.6242308,10.2753846 43.7392308,9.06461538 45.1596154,9.06461538 Z M37.7415385,10.0823077 C36.9634615,10.0673077 35.5307692,11.0265385 33.705,13.0330769 C31.8334615,15.0838462 30.8965385,17.4403846 30.8746154,18.7661538 C30.8634615,19.8923077 31.3711538,20.2634615 31.8673077,20.2753846 C32.2961538,20.2753846 33.3996154,19.7511538 34.6742308,18.3846154 C36.5011538,16.3992308 38.7111538,12.7723077 38.7457692,11.1376923 C38.7557692,10.3503846 38.2603846,10.0823077 37.7415385,10.0823077 Z M35.8461538,4.20346154 L31.9107692,14.0253846 L31.9692308,14.0253846 C34.0538462,10.9926923 36.0265385,9.06461538 38.1930769,9.09730769 C39.9069231,9.13038462 40.6742308,10.265 40.6403846,11.7476923 C40.6046154,13.7315385 39.1742308,16.2069231 36.7938462,18.4507692 C34.3811538,20.6961538 32.2276923,21.1857692 31.2015385,21.1634615 C29.6473077,21.1488462 28.9126923,20.1192308 28.9453846,18.4657692 C28.9680769,17.1126923 29.6473077,15.0403846 30.5246154,12.8173077 L34.0307692,3.97346154 C34.6519231,2.37192308 34.7538462,1.85076923 34.3580769,1.58692308 L33.705,1.11153846 C33.6473077,0.996538462 33.6819231,0.822307692 33.8057692,0.702692308 C34.3580769,0.509615385 35.9492308,0.179230769 37.2892308,0.212307692 L37.3915385,0.398461538 C36.7603846,2.015 36.3088462,3.085 35.8461538,4.20346154 Z M27.075,9.89230769 C26.6680769,9.89230769 25.9030769,10.1453846 24.8419231,11.2723077 C23.7030769,12.4784615 23.0261538,13.8096154 22.6769231,14.6384615 C24.6173077,14.0734615 25.5184615,13.5242308 26.6019231,12.5123077 C27.515,11.6734615 27.7519231,10.8207692 27.7519231,10.5576923 C27.7519231,10.265 27.605,9.89230769 27.075,9.89230769 Z M27.6596154,8.99 C28.8465385,8.99 29.4996154,9.97038462 29.4996154,10.7253846 C29.4996154,12.925 26.6019231,14.3673077 22.3834615,15.5073077 C22.1696154,16.0138462 21.9673077,16.9346154 21.9673077,18.0796154 C21.9673077,19.0607692 22.5869231,19.7180769 23.3869231,19.7180769 C24.4369231,19.7180769 25.1684615,19.1303846 26.4553846,18.0457692 C26.7242308,18.0457692 26.8942308,18.28 26.8376923,18.54 C25.0561538,20.6992308 23.3869231,21.1634615 22.1584615,21.1634615 C20.3869231,21.1634615 19.7676923,19.5511538 19.7676923,18.1388462 C19.7676923,16.3180769 20.9411538,12.8061538 24.1434615,10.3834615 C25.6657692,9.21923077 26.815,8.99 27.6596154,8.99 Z M4.48884615,14.0615385 L6.78846154,6.70423077 C7.30692308,5.03653846 7.73615385,3.80230769 7.73615385,3.27807692 C7.73615385,2.87692308 7.47653846,2.73538462 6.98076923,2.64615385 L5.83115385,2.42 C5.58346154,2.21884615 5.67423077,1.78846154 5.96576923,1.69576923 C6.83576923,1.75461538 7.70384615,1.78846154 8.93230769,1.78846154 L10.7361538,1.78846154 L10.7361538,2.17807692 C10.7361538,2.50576923 11.0176923,3.565 12.1569231,6.36230769 L15.0892308,13.5242308 C15.6634615,14.8915385 16.1707692,16.1288462 16.51,16.7596154 C16.7238462,16.7596154 16.86,16.415 17.0069231,15.9642308 L19.2934615,8.74884615 C20.1853846,6.02423077 20.7034615,3.97346154 20.7034615,3.43115385 C20.7034615,2.90692308 20.6488462,2.66961538 19.9823077,2.59115385 L18.8434615,2.42 C18.6630769,2.15653846 18.775,1.82423077 19.0238462,1.69576923 C20.0380769,1.75461538 21.2107692,1.78846154 22.3053846,1.78846154 C23.4115385,1.78846154 24.2230769,1.75461538 25.0561538,1.69576923 C25.2153846,1.82423077 25.2584615,2.245 25.0911538,2.42 L24.4142308,2.54538462 C23.7488462,2.64615385 23.1846154,2.78730769 22.915,3.06384615 C22.5076923,3.46423077 21.4365385,6.03846154 20.5238462,8.81884615 L18.4373077,15.2776923 C17.4553846,18.3246154 17.1188462,19.4203846 16.6111538,21.2007692 C16.4292308,21.3723077 16.1361538,21.3976923 15.9011538,21.3723077 C15.5403846,20.2161538 15.0892308,18.9526923 13.1938462,14.3523077 L10.905,8.81884615 C10.1273077,6.93846154 9.42769231,5.03653846 8.96692308,4.09230769 C8.80884615,4.09230769 8.51576923,5.03653846 8.03076923,6.61461538 L5.77461538,14.0923077 C5.12115385,16.0761538 4.64615385,18.3761538 4.54615385,18.8669231 C4.30923077,19.8180769 4.98538462,19.9253846 5.96576923,20.0419231 L6.63192308,20.1234615 C6.81115385,20.2942308 6.74384615,20.6992308 6.55384615,20.8507692 C5.67423077,20.7884615 4.56807692,20.7657692 3.23884615,20.7657692 C2.18846154,20.7657692 1.08423077,20.7884615 0.194230769,20.8507692 C0.0123076923,20.7319231 -0.100384615,20.3315385 0.126923077,20.1234615 L0.846923077,20.0419231 C1.19615385,20.0230769 1.87346154,19.8488462 2.29076923,19.5619231 C2.77576923,19.1492308 3.36115385,17.7226923 4.48884615,14.0615385 L4.48884615,14.0615385 Z" id="Fill-7"></path>
            </g>
            <path d="M178.186154,24.7534615 L178.186154,27.4319231 L179.594615,27.4319231 L179.594615,30.1303846 L178.186154,30.1303846 L178.186154,39.2642308 C178.186154,40.3834615 178.241538,41.0184615 178.357308,41.1296154 C178.468846,41.2669231 178.954231,41.3234615 179.811154,41.3234615 L179.811154,44.0923077 L177.701154,44.0923077 C176.517692,44.0923077 175.671923,44.035 175.163462,43.9315385 C174.656538,43.8419231 174.217692,43.6188462 173.833077,43.2665385 C173.450385,42.9061538 173.214231,42.4892308 173.100385,42.0323077 C173.01,41.5757692 172.964615,40.4938462 172.964615,38.7953846 L172.964615,30.1303846 L172.108846,30.1153846 L172.108846,32.5380769 C171.149231,32.5380769 170.428462,32.6642308 169.978462,32.9219231 C169.514615,33.1696154 169.255769,33.5303846 169.155,34.0057692 C169.052692,34.4519231 169.006923,35.4992308 169.006923,37.1376923 L169.006923,43.83 L163.731154,43.83 L163.731154,26.8896154 L169.006923,26.8896154 L168.783077,29.1042308 C169.548077,27.5026923 170.653462,26.6515385 172.108846,26.5811538 L172.108846,27.4134615 L172.964615,27.4319231 L172.964615,24.7534615 L178.186154,24.7534615 Z M157.415,35.7815385 C156.581154,36.3834615 156.097308,36.8784615 155.95,37.3103846 C155.825769,37.6965385 155.758846,38.2830769 155.758846,39.0553846 C155.758846,39.9403846 155.815,40.4938462 155.916154,40.7457692 C156.051923,41.0184615 156.288077,41.1296154 156.613846,41.1296154 C156.956538,41.1296154 157.180385,41.04 157.268077,40.8430769 C157.372308,40.6503846 157.415,40.1153846 157.415,39.2642308 L157.415,35.7815385 Z M155.758846,33.4407692 L150.830385,33.4407692 L150.830385,32.3157692 C150.830385,30.9996154 150.977308,29.9884615 151.282692,29.2896154 C151.586923,28.5665385 152.218846,27.9457692 153.153077,27.4026923 C154.079615,26.8565385 155.285769,26.5811538 156.760769,26.5811538 C158.543462,26.5811538 159.884615,26.8896154 160.777308,27.5026923 C161.688846,28.1230769 162.232308,28.8930769 162.410769,29.7884615 C162.591923,30.6726923 162.681154,32.5230769 162.681154,35.325 L162.681154,43.83 L157.573462,43.83 L157.573462,42.3253846 C157.246538,42.94 156.831538,43.3734615 156.323846,43.6896154 C155.815,43.9938462 155.206538,44.1538462 154.508846,44.1538462 C153.582308,44.1538462 152.736923,43.8953846 151.969615,43.3734615 C151.204615,42.8834615 150.830385,41.7680769 150.830385,40.0476923 L150.830385,38.6542308 C150.830385,37.3953846 151.021923,36.5142308 151.429615,36.0565385 C151.844615,35.6196154 152.860769,35.0761538 154.472692,34.455 C156.186923,33.7903846 157.122692,33.3515385 157.246538,33.1142308 C157.359615,32.8880769 157.415,32.4042308 157.415,31.7161538 C157.415,30.8326923 157.359615,30.2573077 157.214231,29.9884615 C157.089231,29.7219231 156.864231,29.5788462 156.558846,29.5788462 C156.186923,29.5788462 155.973846,29.7 155.893462,29.9223077 C155.805385,30.1484615 155.758846,30.7246154 155.758846,31.6823077 L155.758846,33.4407692 Z M149.680769,23.1480769 L149.680769,43.83 L144.899231,43.83 L144.899231,29.8734615 L142.984231,43.83 L139.591154,43.83 L137.570385,30.1896154 L137.570385,43.83 L132.779231,43.83 L132.779231,23.1480769 L139.871154,23.1480769 C140.086538,24.3965385 140.299231,25.8634615 140.537692,27.5403846 L141.291538,32.8173077 L142.545,23.1480769 L149.680769,23.1480769 L149.680769,23.1480769 Z" id="Fill-9" fill="#00653A"></path>
            <polyline id="Fill-10" fill="#70614E" points="132.813462 61.1334615 134.291538 61.1334615 134.291538 67.1753846 136.017692 67.1753846 136.017692 61.1334615 137.495769 61.1334615 137.495769 59.5980769 132.813462 59.5980769 132.813462 61.1334615"></polyline>
            <polyline id="Fill-11" fill="#70614E" points="142.36 67.1753846 147.114231 67.1753846 147.114231 65.64 144.085 65.64 144.085 64.1211538 147.114231 64.1211538 147.114231 62.5861538 144.085 62.5861538 144.085 61.1334615 147.114231 61.1334615 147.114231 59.5980769 142.36 59.5980769 142.36 67.1753846"></polyline>
            <polyline id="Fill-12" fill="#70614E" points="159.458846 59.5980769 157.380385 59.5980769 155.715769 61.9426923 154.061154 59.5980769 151.973462 59.5980769 154.646923 63.3019231 151.883077 67.1753846 153.934231 67.1753846 155.713462 64.6630769 157.473077 67.1753846 159.536923 67.1753846 156.772308 63.3026923 159.458846 59.5980769"></polyline>
            <g id="Group-16" transform="translate(162.692308, 59.230769)">
                <mask id="mask-2" fill="white">
                    <use xlink:href="#path-1"></use>
                </mask>
                <g id="Clip-14"></g>
                <path d="M5.05230769,4.98884615 L3.42653846,4.98884615 L4.23615385,2.81807692 L5.05230769,4.98884615 Z M3.52423077,0.367307692 L0.346153846,7.94461538 L2.18769231,7.94461538 L2.70692308,6.69423077 L5.74153846,6.69038462 L6.26115385,7.94461538 L8.11115385,7.94461538 L4.935,0.367307692 L3.52423077,0.367307692 L3.52423077,0.367307692 Z" id="Fill-13" fill="#70614E" mask="url(#mask-2)"></path>
                <path d="M14.7476923,3.19038462 C14.6511538,3.15923077 14.5565385,3.12884615 14.465,3.09730769 L14.3892308,3.07230769 C13.9788462,2.93846154 13.6384615,2.79653846 13.6384615,2.42115385 C13.6384615,2.20153846 13.8592308,1.77 14.3684615,1.77 C14.5269231,1.77 15.0484615,1.80923077 15.1365385,2.31461538 L15.18,2.56384615 L16.8903846,2.56230769 L16.8646154,2.23730769 C16.7711538,1.07692308 15.7215385,0.235 14.3684615,0.235 C12.6746154,0.235 11.9130769,1.51923077 11.9130769,2.43076923 C11.9130769,3.05038462 12.1453846,3.625 12.535,3.96692308 C12.9396154,4.32230769 13.2442308,4.45153846 14.2684615,4.80730769 L14.4076923,4.85576923 C14.9661538,5.04653846 15.3053846,5.19692308 15.3053846,5.66461538 C15.3053846,6.31153846 14.8215385,6.54230769 14.3684615,6.54230769 C13.8430769,6.54230769 13.5303846,6.27769231 13.4384615,5.75807692 L13.3942308,5.50923077 L11.6761538,5.50884615 L11.7053846,5.83653846 C11.8411538,7.37576923 13.1811538,8.07692308 14.3684615,8.07692308 C15.9115385,8.07692308 17.0319231,7.06269231 17.0319231,5.66461538 C17.0319231,3.92692308 15.7119231,3.50115385 14.7476923,3.19038462" id="Fill-15" fill="#70614E" mask="url(#mask-2)"></path>
            </g>
        </g>
    </g>
</svg>