<?xml version="1.0" encoding="UTF-8"?>
<svg width="129px" height="35px" viewBox="0 0 129 35" version="1.1" xmlns="http://www.w3.org/2000/svg" xmlns:xlink="http://www.w3.org/1999/xlink">
    <!-- Generator: Sketch 42 (36781) - http://www.bohemiancoding.com/sketch -->
    <title>Page 1</title>
    <desc>Created with Sketch.</desc>
    <defs>
        <polygon id="path-1" points="0 34.9597525 129 34.9597525 129 3.58333333e-05 0 3.58333333e-05"></polygon>
    </defs>
    <g id="Symbols" stroke="none" stroke-width="1" fill="none" fill-rule="evenodd">
        <g id="Page-1">
            <path d="M9.19701917,27.5179575 C9.0415025,28.8685158 8.95406917,30.0449242 8.90748583,31.0504075 C3.68406083,28.9262075 3.58333333e-05,23.8031158 3.58333333e-05,17.8167992 C3.58333333e-05,10.4265325 5.61261083,4.34776583 12.8072275,3.6088825 C12.2833442,4.63299917 11.7795275,5.84094083 11.3380608,7.26639083 C6.7195025,8.55316583 3.32931083,12.7879492 3.32931083,17.8167992 C3.32931083,22.0300825 5.70936083,25.6854408 9.19701917,27.5179575 Z" id="Fill-1" fill="#221F20"></path>
            <path d="M21.5560075,5.52385167 C21.6151325,6.68055167 21.5796575,7.99814333 21.3972658,9.49024333 C23.7468575,11.4994183 25.2378825,14.4829017 25.2378825,17.816835 C25.2378825,23.5394183 20.8490158,28.2343017 15.2539992,28.725935 C14.8458575,30.0317017 14.4459575,31.1504183 14.0779492,32.0953433 C14.1467492,32.09606 14.2148325,32.10036 14.2836325,32.10036 C22.1723408,32.10036 28.5671575,25.7055433 28.5671575,17.816835 C28.5671575,12.5844517 25.7524492,8.01176 21.5560075,5.52385167" id="Fill-3" fill="#221F20"></path>
            <path d="M13.3496725,22.9059925 C12.6799475,22.7633758 12.2327475,21.9865092 12.0682725,21.6507508 C12.0442642,21.6023758 11.9729558,21.6138425 11.9618475,21.6665175 C10.3246225,29.4900092 10.6385225,34.0193425 10.7259558,34.9108758 C10.7313308,34.9642675 10.8008475,34.9778842 10.8273642,34.9316592 C11.2709808,34.1504925 13.3991225,30.1411008 15.0847225,22.3312258 C15.0958308,22.2796258 15.0356308,22.2416425 14.9958558,22.2764008 C14.7167142,22.5193508 14.0168892,23.0482508 13.3496725,22.9059925" id="Fill-5" fill="#221F20"></path>
            <path d="M13.7708217,18.6635408 C13.7708217,18.6635408 12.1955883,17.3394992 14.00768,9.82739917 C15.073005,5.41201583 17.12088,2.9026075 17.12088,2.9026075 L13.7708217,18.6635408 Z M19.8338217,17.1280825 L18.147505,15.8678242 C18.1091633,15.8395158 18.0941133,15.7893492 18.1091633,15.7441992 C21.6365967,5.18232417 18.6455883,0.6332825 18.203405,0.0402408333 C18.1729467,-0.000250833333 18.1191967,-0.0117175 18.0747633,0.0130075 C17.4290467,0.374565833 12.84668,3.3143325 11.7734717,14.3972242 C11.7688133,14.4448825 11.73513,14.4842992 11.688905,14.4946908 C11.3477717,14.5720908 9.97392167,14.8834825 9.63422167,14.9605242 C9.58799667,14.9709158 9.55431333,15.0092575 9.54893833,15.0561992 L8.758455,22.0336658 C8.74663,22.1393742 8.87563,22.1999325 8.94908833,22.1232492 L11.9056967,19.0387158 C11.96303,18.9788742 12.0626467,18.9992992 12.0905967,19.0774158 C12.2762133,19.5991492 12.8857383,21.1485825 13.62928,21.3241658 C14.372105,21.5001075 15.5381217,20.3093658 15.915805,19.8962075 C15.9724217,19.8345742 16.0734717,19.8557158 16.10178,19.9341908 L17.5469383,23.9507492 C17.5827717,24.0507242 17.7253883,24.0478575 17.75728,23.9464492 L19.8732383,17.2506325 C19.8875717,17.2054825 19.871805,17.1563908 19.8338217,17.1280825 L19.8338217,17.1280825 Z" id="Fill-7" fill="#221F20"></path>
            <path d="M39.5790633,17.2828825 L41.6907217,17.2828825 C42.4321133,17.2828825 42.988605,17.0363492 43.3598383,16.5432825 C43.7307133,16.0502158 43.91633,15.3905242 43.91633,14.5645658 C43.91633,14.1428075 43.8761967,13.7615408 43.7962883,13.4200492 C43.7156633,13.0785575 43.5891717,12.7879492 43.416455,12.5475075 C43.2437383,12.3074242 43.0226467,12.1221658 42.7528217,11.9910158 C42.4829967,11.8605825 42.1626467,11.7953658 41.7917717,11.7953658 L39.5790633,11.7953658 L39.5790633,17.2828825 Z M41.4251967,20.3810325 L39.5790633,20.3810325 L39.5790633,27.1076658 L35.861355,27.1076658 L35.861355,8.69721583 L41.7917717,8.69721583 C42.7105383,8.69721583 43.530405,8.8172575 44.2513717,9.05769917 C44.97198,9.2977825 45.5829383,9.65181583 46.084605,10.1197992 C46.5862717,10.5874242 46.9696883,11.1675658 47.2352133,11.8584325 C47.5007383,12.5500158 47.63368,13.3505325 47.63368,14.2606992 C47.63368,14.9268408 47.572405,15.5277658 47.4502133,16.0627575 C47.3280217,16.5981075 47.151005,17.0743325 46.9191633,17.4917908 C46.6873217,17.9088908 46.407105,18.2736742 46.0785133,18.5854242 C45.7495633,18.8971742 45.3786883,19.1669992 44.96553,19.3945408 L48.1901717,26.9306492 L48.1901717,27.1076658 L44.1943967,27.1076658 L41.4251967,20.3810325 Z" id="Fill-9" fill="#221F20"></path>
            <polygon id="Fill-11" fill="#221F20" points="59.6966492 19.1417367 53.9052658 19.1417367 53.9052658 24.022595 60.7587492 24.022595 60.7587492 27.107845 50.1879158 27.107845 50.1879158 8.697395 60.7336658 8.697395 60.7336658 11.7951867 53.9052658 11.7951867 53.9052658 16.144995 59.6966492 16.144995"></polygon>
            <polygon id="Fill-13" fill="#221F20" points="69.40716 22.0498625 72.50531 8.6972875 76.65266 8.6972875 71.3418017 27.1077375 67.4725183 27.1077375 62.1996433 8.6972875 66.32191 8.6972875"></polygon>
            <path d="M90.8772392,8.69721583 L90.8772392,21.3417242 C90.8772392,22.4124242 90.7274558,23.3272492 90.4282475,24.0858408 C90.1290392,24.8444325 89.7115808,25.4661408 89.1765892,25.9506075 C88.6412392,26.4357908 88.0026892,26.7916158 87.2609392,27.0191575 C86.5188308,27.2470575 85.7097142,27.3606492 84.8332308,27.3606492 C83.9395475,27.3606492 83.1196808,27.2470575 82.3736308,27.0191575 C81.6279392,26.7916158 80.9868808,26.4357908 80.4518892,25.9506075 C79.9161808,25.4661408 79.4990808,24.8444325 79.1998725,24.0858408 C78.9006642,23.3272492 78.7512392,22.4124242 78.7512392,21.3417242 L78.7512392,8.69721583 L82.4936725,8.69721583 L82.4936725,21.3417242 C82.4936725,21.9487408 82.5445558,22.4418075 82.6456058,22.8212825 C82.7466558,23.2007575 82.8964392,23.4978158 83.0945975,23.7128158 C83.2923975,23.9274575 83.5371392,24.0754492 83.8277475,24.1553575 C84.1187142,24.2356242 84.4537558,24.2753992 84.8332308,24.2753992 C85.2123475,24.2753992 85.5473892,24.2356242 85.8383558,24.1553575 C86.1293225,24.0754492 86.3711975,23.9274575 86.5654142,23.7128158 C86.7592725,23.4978158 86.9069058,23.2007575 87.0079558,22.8212825 C87.1090058,22.4418075 87.1595308,21.9487408 87.1595308,21.3417242 L87.1595308,8.69721583 L90.8772392,8.69721583 Z" id="Fill-15" fill="#221F20"></path>
            <polygon id="Fill-17" fill="#221F20" points="106.569014 27.1078092 102.851664 27.1078092 97.4143142 15.0323342 97.4143142 27.1078092 93.6969642 27.1078092 93.6969642 8.69735917 97.4143142 8.69735917 102.864206 20.7853758 102.864206 8.69735917 106.569014 8.69735917"></polygon>
            <mask id="mask-2" fill="white">
                <use xlink:href="#path-1"></use>
            </mask>
            <g id="Clip-20"></g>
            <polygon id="Fill-19" fill="#221F20" mask="url(#mask-2)" points="109.717725 27.1079525 113.435075 27.1079525 113.435075 8.6975025 109.717725 8.6975025"></polygon>
            <polygon id="Fill-21" fill="#221F20" mask="url(#mask-2)" points="128.999821 11.7951867 124.447913 11.7951867 124.447913 27.107845 120.718021 27.107845 120.718021 11.7951867 116.241721 11.7951867 116.241721 8.69703667 128.999821 8.69703667"></polygon>
        </g>
    </g>
</svg>