<?xml version="1.0" encoding="UTF-8"?>
<svg width="112px" height="62px" viewBox="0 0 112 62" version="1.1" xmlns="http://www.w3.org/2000/svg" xmlns:xlink="http://www.w3.org/1999/xlink">
    <!-- Generator: Sketch 42 (36781) - http://www.bohemiancoding.com/sketch -->
    <title>Group</title>
    <desc>Created with Sketch.</desc>
    <defs>
        <polygon id="path-1" points="111.884416 61.9786207 0.0212981744 61.9786207 0.0212981744 0.0445402299 55.9528573 0.0445402299 111.884416 0.0445402299"></polygon>
        <polygon id="path-3" points="111.884416 61.9786207 0.0212981744 61.9786207 0.0212981744 0.0445402299 55.9528573 0.0445402299 111.884416 0.0445402299"></polygon>
        <polygon id="path-5" points="111.884416 61.9786207 0.0212981744 61.9786207 0.0212981744 0.0445402299 55.9528573 0.0445402299 111.884416 0.0445402299"></polygon>
        <polygon id="path-7" points="111.884416 61.9786207 0.0212981744 61.9786207 0.0212981744 0.0445402299 55.9528573 0.0445402299 111.884416 0.0445402299"></polygon>
        <polygon id="path-9" points="111.884416 61.9786207 0.0212981744 61.9786207 0.0212981744 0.0445402299 55.9528573 0.0445402299 111.884416 0.0445402299"></polygon>
        <polygon id="path-11" points="111.884416 61.9786207 0.0212981744 61.9786207 0.0212981744 0.0445402299 55.9528573 0.0445402299 111.884416 0.0445402299"></polygon>
    </defs>
    <g id="Page-1" stroke="none" stroke-width="1" fill="none" fill-rule="evenodd">
        <g id="Group">
            <mask id="mask-2" fill="white">
                <use xlink:href="#path-1"></use>
            </mask>
            <g id="path-5"></g>
            <path d="M60.1144523,53.2237931 C52.9167343,53.2237931 47.0824544,47.3665747 47.0824544,40.1421494 C47.0824544,32.9159425 52.9167343,27.0594368 60.1144523,27.0594368 C67.3118154,27.0594368 73.1471602,32.9159425 73.1471602,40.1421494 C73.1471602,47.3665747 67.3118154,53.2237931 60.1144523,53.2237931 Z M60.1144523,26.7031149 C52.73286,26.7031149 46.7274848,32.7317241 46.7274848,40.1421494 C46.7274848,47.5518621 52.73286,53.5801149 60.1144523,53.5801149 C67.4963996,53.5801149 73.5021298,47.5518621 73.5021298,40.1421494 C73.5021298,32.7317241 67.4963996,26.7031149 60.1144523,26.7031149 L60.1144523,26.7031149 Z" id="Fill-1" fill="#FFFFFF" fill-rule="nonzero" mask="url(#mask-2)"></path>
            <mask id="mask-4" fill="white">
                <use xlink:href="#path-3"></use>
            </mask>
            <g id="path-5"></g>
            <path d="M60.1144523,61.595931 C52.1925963,61.595931 44.9583164,57.2274253 41.2343306,50.1957701 L40.9208925,49.6039195 L40.6074544,50.1957701 C36.8834686,57.2274253 29.6488337,61.595931 21.7273327,61.595931 C16.0808316,61.595931 10.756643,59.404908 6.7351927,55.4276437 C2.718357,51.4553678 0.455780933,46.1529425 0.363843813,40.497046 L0.354969574,40.2832529 L0.354969574,4.42124138 L0.357099391,4.32681609 C0.402890467,2.16322989 2.19264706,0.403 4.34731237,0.403 C6.50162272,0.403 8.29173428,2.16322989 8.33788032,4.32717241 L8.34001014,4.40021839 L8.34001014,23.4035747 L8.90796146,22.9752759 C12.6291075,20.1703103 17.0616126,18.6880115 21.7273327,18.6880115 C29.6491886,18.6880115 36.8834686,23.0558046 40.6074544,30.0867471 L40.9208925,30.678954 L41.2343306,30.0867471 C44.9579615,23.0558046 52.1925963,18.6880115 60.1144523,18.6880115 C71.8990872,18.6880115 81.4868154,28.311908 81.4868154,40.1421494 C81.4868154,51.9716782 71.8990872,61.595931 60.1144523,61.595931 Z M60.1144523,18.3316897 C51.7953854,18.3316897 44.5713996,23.0265862 40.9208925,29.9196322 C37.2703854,23.0265862 30.0463996,18.3316897 21.7273327,18.3316897 C16.8376268,18.3316897 12.3256085,19.9536667 8.69497972,22.6905747 L8.69497972,4.31933333 L8.6928499,4.31933333 C8.64244422,1.95193103 6.71815416,0.0466781609 4.34731237,0.0466781609 C1.97611562,0.0466781609 0.0521805274,1.95193103 0.00212981744,4.31933333 L0,4.31933333 L0,40.5031034 L0.00887423935,40.5031034 C0.201977688,52.3807356 9.84827586,61.9522529 21.7273327,61.9522529 C30.0463996,61.9522529 37.2703854,57.255931 40.9208925,50.3632414 C44.5713996,57.255931 51.7953854,61.9522529 60.1144523,61.9522529 C72.1141988,61.9522529 81.841785,52.1865402 81.841785,40.1421494 C81.841785,28.0963333 72.1141988,18.3316897 60.1144523,18.3316897 L60.1144523,18.3316897 Z" id="Fill-3" fill="#FFFFFF" fill-rule="nonzero" mask="url(#mask-4)"></path>
            <mask id="mask-6" fill="white">
                <use xlink:href="#path-5"></use>
            </mask>
            <g id="path-5"></g>
            <path d="M21.7273327,53.2237931 C14.5296146,53.2237931 8.69497972,47.3665747 8.69497972,40.1421494 C8.69497972,32.9159425 14.5296146,27.0594368 21.7273327,27.0594368 C28.9250507,27.0594368 34.7596856,32.9159425 34.7596856,40.1421494 C34.7596856,47.3665747 28.9250507,53.2237931 21.7273327,53.2237931 Z M21.7273327,26.7031149 C14.3453854,26.7031149 8.34001014,32.7317241 8.34001014,40.1421494 C8.34001014,47.5518621 14.3453854,53.5801149 21.7273327,53.5801149 C29.1089249,53.5801149 35.1146552,47.5518621 35.1146552,40.1421494 C35.1146552,32.7317241 29.1089249,26.7031149 21.7273327,26.7031149 L21.7273327,26.7031149 Z" id="Fill-4" fill="#FFFFFF" fill-rule="nonzero" mask="url(#mask-6)"></path>
            <mask id="mask-8" fill="white">
                <use xlink:href="#path-7"></use>
            </mask>
            <g id="path-5"></g>
            <path d="M109.935497,60.8415977 C109.239047,61.3661034 108.411968,61.6436782 107.543357,61.6436782 C106.306998,61.6436782 105.160091,61.0849655 104.397262,60.1093563 L104.366024,60.0698046 L94.7971095,47.2301034 L94.5127789,46.8488391 L84.6904158,60.0291839 L84.6282961,60.1086437 C83.8654665,61.0842529 82.7189148,61.6436782 81.4822008,61.6436782 C80.6139452,61.6436782 79.7865112,61.3653908 79.0897059,60.8401724 C77.3670385,59.5413793 76.9889959,57.0549655 78.2470081,55.2975862 L78.2998986,55.2231149 L89.3682049,40.370908 L89.5272312,40.1581839 L89.3682049,39.9443908 L78.3123225,25.1092874 L78.2470081,25.0184253 C76.9889959,23.2614023 77.3670385,20.7746322 79.0897059,19.4754828 C79.7865112,18.9502644 80.6139452,18.6723333 81.4822008,18.6723333 C82.7189148,18.6726897 83.8654665,19.2321149 84.6282961,20.2073678 L84.6801217,20.272931 L94.2288032,33.085908 L94.5127789,33.4678851 L94.7971095,33.085908 L104.35644,20.2590345 L104.397617,20.2066552 C105.160091,19.2314023 106.306643,18.6716207 107.543357,18.6716207 C108.411968,18.6716207 109.239047,18.9495517 109.935497,19.4747701 C111.658164,20.7735632 112.036562,23.2603333 110.778905,25.018069 L110.725304,25.0939655 L99.6577079,39.9443908 L99.4986815,40.1581839 L99.6577079,40.370908 L110.706136,55.1960345 L110.778905,55.2975862 C112.036562,57.0556782 111.658164,59.5428046 109.935497,60.8415977 Z M111.06927,55.0887816 L99.9420385,40.1581839 L111.06927,25.2272299 L111.06714,25.2258046 C112.443357,23.3023793 112.044726,20.6192759 110.148479,19.1897126 C109.366481,18.6 108.451014,18.3156552 107.543357,18.3156552 C106.250913,18.3156552 104.974087,18.8921839 104.118256,19.9864483 L104.116836,19.9857356 L94.5127789,32.8728276 L84.909432,19.9857356 L84.9076572,19.9875172 C84.0518256,18.8932529 82.774645,18.3163678 81.4822008,18.3160115 C80.5741886,18.3160115 79.6590771,18.6007126 78.8767241,19.1904253 C76.9808316,20.6203448 76.5818458,23.303092 77.9591278,25.2265172 L77.956998,25.2272299 L89.0838742,40.1581839 L77.956998,55.0887816 L77.9591278,55.0894943 C76.5818458,57.0129195 76.9808316,59.696023 78.8767241,61.1252299 C79.6590771,61.7149425 80.5745436,62 81.4822008,62 C82.774645,62 84.0518256,61.4231149 84.9076572,60.3284943 L84.909432,60.3299195 L94.5127789,47.4431839 L104.116836,60.3299195 L104.118256,60.3292069 C104.973732,61.4231149 106.251268,62 107.543357,62 C108.451369,62 109.366481,61.7163678 110.148479,61.1259425 C112.044726,59.6967356 112.443357,57.0136322 111.06714,55.0902069 L111.06927,55.0887816 L111.06927,55.0887816 Z" id="Fill-5" fill="#FFFFFF" fill-rule="nonzero" mask="url(#mask-8)"></path>
            <mask id="mask-10" fill="white">
                <use xlink:href="#path-9"></use>
            </mask>
            <g id="path-5"></g>
            <path d="M60.1144523,53.2216552 C52.9167343,53.2216552 47.0824544,47.3644368 47.0824544,40.1396552 C47.0824544,32.9141609 52.9167343,27.0572989 60.1144523,27.0572989 C67.3118154,27.0572989 73.1471602,32.9141609 73.1471602,40.1396552 C73.1471602,47.3644368 67.3118154,53.2216552 60.1144523,53.2216552 Z M21.7273327,53.2216552 C14.5296146,53.2216552 8.69497972,47.3644368 8.69497972,40.1396552 C8.69497972,32.9141609 14.5296146,27.0572989 21.7273327,27.0572989 C28.9250507,27.0572989 34.7596856,32.9141609 34.7596856,40.1396552 C34.7596856,47.3644368 28.9250507,53.2216552 21.7273327,53.2216552 Z M60.1144523,18.3291954 C51.7953854,18.3291954 44.5713996,23.0244483 40.9208925,29.9174943 C37.2703854,23.0244483 30.0463996,18.3291954 21.7273327,18.3291954 C16.8376268,18.3291954 12.3256085,19.9515287 8.69497972,22.6880805 L8.69497972,4.3171954 L8.6928499,4.3171954 C8.64244422,1.94943678 6.71815416,0.0445402299 4.34731237,0.0445402299 C1.97611562,0.0445402299 0.0521805274,1.94943678 0.00212981744,4.3171954 L0,4.3171954 L0,40.5009655 L0.00887423935,40.5009655 C0.201977688,52.3785977 9.84827586,61.9497586 21.7273327,61.9497586 C30.0463996,61.9497586 37.2703854,57.2537931 40.9208925,50.3607471 C44.5713996,57.2537931 51.7953854,61.9497586 60.1144523,61.9497586 C72.1141988,61.9497586 81.841785,52.1847586 81.841785,40.1396552 C81.841785,28.0941954 72.1141988,18.3291954 60.1144523,18.3291954 L60.1144523,18.3291954 Z" id="Fill-6" fill="#FFFFFF" fill-rule="nonzero" mask="url(#mask-10)"></path>
            <mask id="mask-12" fill="white">
                <use xlink:href="#path-11"></use>
            </mask>
            <g id="path-5"></g>
            <path d="M111.06927,55.0862874 L99.9420385,40.1556897 L111.06927,25.225092 L111.06714,25.2236667 C112.443357,23.3002414 112.044726,20.6171379 110.148479,19.1875747 C108.252941,17.7583678 105.574696,18.1214598 104.118256,19.9843103 L104.116836,19.9835977 L94.5127789,32.8703333 L84.909432,19.9835977 L84.9076572,19.9853793 C83.4505071,18.1218161 80.7726166,17.7587241 78.8767241,19.1882874 C76.9808316,20.6178506 76.5818458,23.300954 77.9591278,25.224023 L77.956998,25.225092 L89.0838742,40.1556897 L77.956998,55.0862874 L77.9591278,55.0873563 C76.5818458,57.0107816 76.9808316,59.6935287 78.8767241,61.123092 C80.7726166,62.5526552 83.4505071,62.1895632 84.9076572,60.326 L84.909432,60.3277816 L94.5127789,47.441046 L104.116836,60.3277816 L104.118256,60.327069 C105.574696,62.1899195 108.252941,62.5530115 110.148479,61.1241609 C112.044726,59.6945977 112.443357,57.0114943 111.06714,55.0877126 L111.06927,55.0862874" id="Fill-7" fill="#FFFFFF" fill-rule="nonzero" mask="url(#mask-12)"></path>
        </g>
    </g>
</svg>