<?xml version="1.0" encoding="UTF-8"?>
<svg width="267px" height="30px" viewBox="0 0 267 30" version="1.1" xmlns="http://www.w3.org/2000/svg" xmlns:xlink="http://www.w3.org/1999/xlink">
    <!-- Generator: Sketch 42 (36781) - http://www.bohemiancoding.com/sketch -->
    <title>logo--autozone</title>
    <desc>Created with Sketch.</desc>
    <defs>
        <polygon id="path-1" points="269.723667 34.5776382 0 34.5776382 0 0.0617336683 134.861833 0.0617336683 269.723667 0.0617336683"></polygon>
    </defs>
    <g id="Page-1" stroke="none" stroke-width="1" fill="none" fill-rule="evenodd">
        <g id="logo--autozone" transform="translate(0.000000, -1.000000)">
            <g id="Page-1">
                <g id="logo--autozone">
                    <g id="Group-4">
                        <g id="Fill-3-Clipped">
                            <mask id="mask-2" fill="white">
                                <use xlink:href="#path-1"></use>
                            </mask>
                            <g id="path-1"></g>
                        </g>
                    </g>
                    <path d="M126.74397,1.87575377 C123.382198,2.07621859 117.021935,3.14672111 114.326005,7.78386935 L101.480992,29.8780779 L110.387601,29.8790955 L113.898279,23.713191 L117.751884,23.7142085 L114.583794,29.8790955 L122.71941,29.8801131 L133.766344,9.5846608 C135.710276,6.01224874 132.567626,1.52909548 126.74397,1.87575377 M124.946231,11.0398116 L121.606168,17.0347613 L117.751884,17.0347613 L121.606168,10.2691583 C122.085791,9.42591709 123.026043,9.29871859 123.833329,9.24037688 C125.03103,9.15557789 125.862399,9.39471106 124.946231,11.0398116" id="Fill-5" fill="#4D4D4D" fill-rule="nonzero"></path>
                    <polyline id="Fill-6" fill="#4D4D4D" fill-rule="nonzero" points="107.903329 1.87371859 91.803392 29.8763819 93.7727638 29.8763819 109.872362 1.87371859 107.903329 1.87371859"></polyline>
                    <path d="M135.82255,8.98462312 L127.686935,24.1429523 C126.021822,27.2452387 129.796055,30.1063568 134.195088,30.393995 C139.420063,30.7376005 142.603756,29.5711055 144.815653,25.599799 L154.063832,8.98801508 L146.441759,8.9859799 L138.64907,22.8587563 C138.186068,23.6840201 137.363178,24.1429523 136.593882,24.1429523 C135.391432,24.1429523 135.802538,22.9208291 136.165138,22.2600754 L143.444623,8.9859799 L135.82255,8.98462312" id="Fill-7" fill="#4D4D4D" fill-rule="nonzero"></path>
                    <path d="M221.590967,7.8805402 C214.162915,7.16822864 209.559686,15.2451633 207.676809,18.498392 C205.696922,21.9195226 204.797374,27.3001884 207.203631,29.0765578 C211.616231,32.3314824 218.123028,29.8855402 220.393945,27.5790075 C223.176369,24.7531658 224.296055,23.0415829 226.089045,19.2300377 C230.455854,9.93674623 224.718015,8.18106784 221.590967,7.8805402 M215.279548,18.3172613 C217.444975,14.7370477 218.570766,14.1146231 219.629736,14.7753769 C220.524535,15.3852513 219.676884,16.9601382 218.07995,19.9189447 C215.668606,23.4014698 214.846394,24.1534673 213.720603,23.4089322 C213.039497,22.9679774 213.820666,21.2258668 215.279548,18.3172613" id="Fill-8" fill="#4D4D4D" fill-rule="nonzero"></path>
                    <polyline id="Fill-9" fill="#4D4D4D" fill-rule="nonzero" points="0 29.8889322 37.4513065 29.8763819 53.5512437 1.87575377 0 1.81876884 0 29.8889322"></polyline>
                    <polyline id="Fill-10" fill="#4D4D4D" fill-rule="nonzero" points="54.6475251 1.86829146 38.5479271 29.8709548 52.1639322 29.8719724 68.2648869 1.86930905 54.6475251 1.86829146"></polyline>
                    <polyline id="Fill-11" fill="#4D4D4D" fill-rule="nonzero" points="69.6128518 1.87066583 53.511897 29.8733291 64.7314824 29.8743467 80.8314196 1.87134422 69.6128518 1.87066583"></polyline>
                    <polyline id="Fill-12" fill="#4D4D4D" fill-rule="nonzero" points="82.467701 1.87134422 66.3674246 29.8743467 74.8452889 29.8753643 90.9459045 1.87236181 82.467701 1.87134422"></polyline>
                    <polyline id="Fill-13" fill="#4D4D4D" fill-rule="nonzero" points="92.9156156 1.87236181 76.8156784 29.8753643 82.2109296 29.8763819 98.3101884 1.87371859 92.9156156 1.87236181"></polyline>
                    <polyline id="Fill-14" fill="#4D4D4D" fill-rule="nonzero" points="101.05191 1.87236181 84.951294 29.8780779 88.2920352 29.8780779 104.391294 1.87236181 101.05191 1.87236181"></polyline>
                    <polyline id="Fill-15" fill="#4D4D4D" fill-rule="nonzero" points="113.726307 1.87473618 97.6273869 29.8780779 98.568995 29.8780779 114.668254 1.87473618 113.726307 1.87473618"></polyline>
                    <path d="M157.319095,5.81856784 L148.068204,22.9455905 C147.181206,24.5886558 147.195791,26.4281156 148.497286,28.0847487 C149.438894,29.2844849 150.415101,29.8828266 152.17858,29.8828266 L156.890013,29.8828266 L159.887487,24.2318216 L156.547764,24.2318216 C156.272337,24.2318216 155.966721,24.3145854 155.863266,24.0601884 C155.797802,23.9038191 155.867676,23.7820477 155.948405,23.6324623 L160.487186,15.1549372 L165.027324,15.1549372 L168.10892,9.16032663 L163.742111,9.16032663 L165.53951,5.81958543 L157.319095,5.81856784" id="Fill-16" fill="#4D4D4D" fill-rule="nonzero"></path>
                    <polyline id="Fill-17" fill="#4D4D4D" fill-rule="nonzero" points="193.991269 1.85574121 216.685176 1.85811558 212.556822 9.59246231 194.572312 23.2939447 205.020565 23.2949623 201.253116 29.8889322 178.471696 29.8865578 182.58343 22.4364573 201.604183 8.50059045 190.984296 8.49957286 193.991269 1.85574121"></polyline>
                    <path d="M233.111759,9.68031407 L241.332852,9.68133166 L240.905465,10.6232789 C239.993367,12.6289447 242.360616,8.13968593 246.47201,9.68133166 C248.411533,10.4095854 249.182525,12.9308291 248.441721,14.3072864 L240.048656,29.8936809 L232.597538,29.8923241 L239.277663,17.2179271 C239.577173,16.6494347 239.645013,15.7468342 239.020892,15.5914824 C237.993807,15.3333543 237.547764,16.4140327 237.05152,17.3034045 L230.027111,29.8913065 L222.148606,29.8913065 L233.111759,9.68031407" id="Fill-18" fill="#4D4D4D" fill-rule="nonzero"></path>
                    <path d="M264.723467,21.0593216 C265.322148,19.3473995 268.183266,14.5796608 265.835352,10.870892 C264.506043,8.76719849 262.154058,8.06302764 260.099887,7.95923367 C253.338015,7.61596734 249.373153,14.2757412 247.428882,18.4888945 C245.888932,21.8279397 242.105201,30.2494975 252.223756,30.6473744 C256.590565,30.8186683 262.155075,26.7103266 263.953492,22.2580402 L256.247977,22.2570226 C255.390829,23.3695854 254.44956,25.2531407 253.165364,24.568304 C252.243769,24.0764698 252.995766,22.7712437 253.936696,21.0593216 L264.723467,21.0593216 Z M258.986307,14.8092965 C259.244435,15.3238568 258.986307,16.0076759 257.959221,18.0632035 L255.305352,18.0618467 C256.333455,16.0066583 258.130176,13.095 258.986307,14.8092965 L258.986307,14.8092965 Z" id="Fill-19" fill="#4D4D4D" fill-rule="nonzero"></path>
                    <path d="M178.087048,7.87613065 C170.657299,7.16246231 166.05441,15.2414322 164.169837,18.4943216 C162.18995,21.9144347 161.291759,27.2957789 163.698015,29.071809 C168.10892,32.3257161 174.614359,29.8801131 176.887312,27.5735804 C179.671432,24.7487563 180.790101,23.0368342 182.58343,19.2246106 C186.950239,9.93267588 181.21206,8.17665829 178.087048,7.87613065 M171.773593,18.313191 C173.939359,14.7326382 175.063455,14.1102136 176.122764,14.7713065 C177.01892,15.3811809 176.171269,16.9553894 174.573995,19.9148744 C172.161294,23.3946859 171.341796,24.1500754 170.21397,23.405201 C169.534899,22.9622111 170.314711,21.2211181 171.773593,18.313191" id="Fill-20" fill="#4D4D4D" fill-rule="nonzero"></path>
                </g>
            </g>
        </g>
    </g>
</svg>