<?xml version="1.0" encoding="UTF-8"?>
<svg width="269px" height="33px" viewBox="0 0 269 33" version="1.1" xmlns="http://www.w3.org/2000/svg" xmlns:xlink="http://www.w3.org/1999/xlink">
    <!-- Generator: Sketch 42 (36781) - http://www.bohemiancoding.com/sketch -->
    <title>logo--autozone</title>
    <desc>Created with Sketch.</desc>
    <defs>
        <polygon id="path-1" points="269.723667 34.5776382 0 34.5776382 0 0.0617336683 134.861833 0.0617336683 269.723667 0.0617336683"></polygon>
    </defs>
    <g id="Page-1" stroke="none" stroke-width="1" fill="none" fill-rule="evenodd">
        <g id="logo--autozone">
            <g id="Group-4">
                <mask id="mask-2" fill="white">
                    <use xlink:href="#path-1"></use>
                </mask>
                <g id="Clip-2"></g>
                <path d="M123.760741,31.6334171 L125.96348,27.5871482 C126.023178,27.7211307 126.081181,27.8540955 126.153769,27.9846859 C127.426093,30.2790075 130.537538,31.9115578 134.080779,32.1442462 C139.937337,32.5292337 143.541633,30.9984422 145.983505,27.0593593 C146.219246,27.7930402 146.597111,28.5036558 147.119133,29.1674623 C148.477952,30.8987186 149.990427,31.636809 152.180955,31.636809 L157.94593,31.636809 L160.58657,26.6563945 C160.804334,28.2122864 161.436256,29.5795854 162.657362,30.4821859 C167.035364,33.7116709 172.847487,32.3426759 176.273706,30.2413568 L175.502374,31.6388442 L202.270704,31.6412186 L204.386947,27.9395729 C204.719698,28.9581784 205.290565,29.8424623 206.162977,30.4865955 C210.659359,33.803593 216.671608,32.2694095 220.056445,30.0748116 L219.204045,31.643593 C219.204045,31.643593 229.078379,31.6449497 229.692663,31.6449497 L241.096432,31.6459673 L243.794397,26.6336683 C243.928379,27.4429899 244.191935,28.232299 244.639673,28.9659799 C245.946256,31.0988442 248.475641,32.2548241 252.154899,32.3986432 C257.186193,32.5967337 263.458606,28.1644598 265.57892,22.915402 C265.57892,22.915402 265.617249,22.8207663 265.619284,22.811608 L265.891997,22.811608 L266.378065,21.6376508 L266.771872,20.6977387 C267.823379,18.295892 269.780201,13.8246106 267.317977,9.93369347 C265.900477,7.69262563 263.368379,6.3701005 260.189774,6.20932161 C257.33544,6.06414573 253.607676,6.95080402 250.051206,11.0184422 C249.481696,9.62095477 248.411533,8.53790201 247.086633,8.04030151 C245.650138,7.50233668 244.229585,7.48571608 242.835151,7.92904523 C242.091633,7.92904523 232.06907,7.92768844 232.06907,7.92768844 L229.395867,12.8531533 C229.323618,11.7422864 229.041407,10.7413191 228.53804,9.85805276 C227.327111,7.73197236 224.983606,6.44540201 221.759887,6.13469849 L221.758869,6.13469849 C219.552739,5.92473618 217.575226,6.3701005 215.820226,7.20079146 L219.608367,0.106846734 L192.859372,0.10209799 L188.269372,10.2532161 C188.269372,10.2532161 193.616118,10.2532161 196.246244,10.2542337 C193.050339,12.5953643 188.062123,16.250201 184.721721,18.6968216 C185.511709,16.7403392 185.912638,14.9758417 185.912638,13.4189322 C185.912638,12.0753769 185.619912,10.8844598 185.03005,9.85398241 C183.820138,7.72620603 181.475955,6.44099246 178.253593,6.13164573 C175.292412,5.8470603 172.739623,6.74592965 170.587425,8.17665829 L170.982588,7.4080402 C170.982588,7.4080402 167.307739,7.40668342 166.676834,7.40668342 C166.818279,7.14211055 168.47593,4.06628141 168.47593,4.06628141 L156.273354,4.06492462 L155.775754,4.98584171 L154.561432,7.23471106 L136.087462,7.23233668 C136.061344,6.07635678 135.719095,4.92376884 135.05902,3.88379397 C133.427827,1.31438442 130.27941,-0.0902261307 126.640176,0.125841709 C124.264786,0.267625628 119.260967,0.920577889 115.60647,3.75896985 L117.698631,0.121092965 L107.420992,0.121092965 L100.037374,0.120075377 L91.9017588,0.119057789 L91.9007412,0.119057789 L81.4528266,0.118040201 L68.5993342,0.117022613 L53.6329899,0.114309045 L53.6285804,0.122449749 L-5.10184673,0.0617336683 L-5.06826633,31.6425754 L38.4671985,31.6303643 L38.4695729,31.624598 L53.1788065,31.6256156 L63.3370477,31.6266332 L75.8598241,31.6293467 L75.8598241,31.6276508 L81.9215955,31.6293467 L81.9205779,31.6303643 L94.5959925,31.6303643 L123.760741,31.6334171 Z M162.70451,17.5276131 L162.652274,17.6161432 C161.879585,18.9512186 161.195088,20.6868844 160.81451,22.4795352 L158.554447,22.4795352 C159.636143,20.4569095 160.959686,17.9851884 161.536997,16.9082412 L163.064736,16.9082412 C162.934146,17.1287186 162.812714,17.3396985 162.70451,17.5276131 L162.70451,17.5276131 Z M206.210126,17.5306658 L206.158229,17.6198744 C205.522236,18.7188693 204.945942,20.0912563 204.549761,21.5423367 C202.885666,21.5423367 200.995327,21.5409799 199.765402,21.5409799 C201.811771,19.9830528 204.612173,17.8491709 207.184636,15.8886181 C206.799987,16.5120603 206.475716,17.0751256 206.210126,17.5306658 L206.210126,17.5306658 Z" id="Fill-3" fill="#FFFFFF" mask="url(#mask-2)"></path>
            </g>
            <path d="M126.74397,1.87575377 C123.382198,2.07621859 117.021935,3.14672111 114.326005,7.78386935 L101.480992,29.8780779 L110.387601,29.8790955 L113.898279,23.713191 L117.751884,23.7142085 L114.583794,29.8790955 L122.71941,29.8801131 L133.766344,9.5846608 C135.710276,6.01224874 132.567626,1.52909548 126.74397,1.87575377 M124.946231,11.0398116 L121.606168,17.0347613 L117.751884,17.0347613 L121.606168,10.2691583 C122.085791,9.42591709 123.026043,9.29871859 123.833329,9.24037688 C125.03103,9.15557789 125.862399,9.39471106 124.946231,11.0398116" id="Fill-5" fill="#D82733"></path>
            <polyline id="Fill-6" fill="#E87C2F" points="107.903329 1.87371859 91.803392 29.8763819 93.7727638 29.8763819 109.872362 1.87371859 107.903329 1.87371859"></polyline>
            <path d="M135.82255,8.98462312 L127.686935,24.1429523 C126.021822,27.2452387 129.796055,30.1063568 134.195088,30.393995 C139.420063,30.7376005 142.603756,29.5711055 144.815653,25.599799 L154.063832,8.98801508 L146.441759,8.9859799 L138.64907,22.8587563 C138.186068,23.6840201 137.363178,24.1429523 136.593882,24.1429523 C135.391432,24.1429523 135.802538,22.9208291 136.165138,22.2600754 L143.444623,8.9859799 L135.82255,8.98462312" id="Fill-7" fill="#D82733"></path>
            <path d="M221.590967,7.8805402 C214.162915,7.16822864 209.559686,15.2451633 207.676809,18.498392 C205.696922,21.9195226 204.797374,27.3001884 207.203631,29.0765578 C211.616231,32.3314824 218.123028,29.8855402 220.393945,27.5790075 C223.176369,24.7531658 224.296055,23.0415829 226.089045,19.2300377 C230.455854,9.93674623 224.718015,8.18106784 221.590967,7.8805402 M215.279548,18.3172613 C217.444975,14.7370477 218.570766,14.1146231 219.629736,14.7753769 C220.524535,15.3852513 219.676884,16.9601382 218.07995,19.9189447 C215.668606,23.4014698 214.846394,24.1534673 213.720603,23.4089322 C213.039497,22.9679774 213.820666,21.2258668 215.279548,18.3172613" id="Fill-8" fill="#D82733"></path>
            <polyline id="Fill-9" fill="#E87C2F" points="0 29.8889322 37.4513065 29.8763819 53.5512437 1.87575377 0 1.81876884 0 29.8889322"></polyline>
            <polyline id="Fill-10" fill="#E87C2F" points="54.6475251 1.86829146 38.5479271 29.8709548 52.1639322 29.8719724 68.2648869 1.86930905 54.6475251 1.86829146"></polyline>
            <polyline id="Fill-11" fill="#E87C2F" points="69.6128518 1.87066583 53.511897 29.8733291 64.7314824 29.8743467 80.8314196 1.87134422 69.6128518 1.87066583"></polyline>
            <polyline id="Fill-12" fill="#E87C2F" points="82.467701 1.87134422 66.3674246 29.8743467 74.8452889 29.8753643 90.9459045 1.87236181 82.467701 1.87134422"></polyline>
            <polyline id="Fill-13" fill="#E87C2F" points="92.9156156 1.87236181 76.8156784 29.8753643 82.2109296 29.8763819 98.3101884 1.87371859 92.9156156 1.87236181"></polyline>
            <polyline id="Fill-14" fill="#E87C2F" points="101.05191 1.87236181 84.951294 29.8780779 88.2920352 29.8780779 104.391294 1.87236181 101.05191 1.87236181"></polyline>
            <polyline id="Fill-15" fill="#E87C2F" points="113.726307 1.87473618 97.6273869 29.8780779 98.568995 29.8780779 114.668254 1.87473618 113.726307 1.87473618"></polyline>
            <path d="M157.319095,5.81856784 L148.068204,22.9455905 C147.181206,24.5886558 147.195791,26.4281156 148.497286,28.0847487 C149.438894,29.2844849 150.415101,29.8828266 152.17858,29.8828266 L156.890013,29.8828266 L159.887487,24.2318216 L156.547764,24.2318216 C156.272337,24.2318216 155.966721,24.3145854 155.863266,24.0601884 C155.797802,23.9038191 155.867676,23.7820477 155.948405,23.6324623 L160.487186,15.1549372 L165.027324,15.1549372 L168.10892,9.16032663 L163.742111,9.16032663 L165.53951,5.81958543 L157.319095,5.81856784" id="Fill-16" fill="#D82733"></path>
            <polyline id="Fill-17" fill="#D82733" points="193.991269 1.85574121 216.685176 1.85811558 212.556822 9.59246231 194.572312 23.2939447 205.020565 23.2949623 201.253116 29.8889322 178.471696 29.8865578 182.58343 22.4364573 201.604183 8.50059045 190.984296 8.49957286 193.991269 1.85574121"></polyline>
            <path d="M233.111759,9.68031407 L241.332852,9.68133166 L240.905465,10.6232789 C239.993367,12.6289447 242.360616,8.13968593 246.47201,9.68133166 C248.411533,10.4095854 249.182525,12.9308291 248.441721,14.3072864 L240.048656,29.8936809 L232.597538,29.8923241 L239.277663,17.2179271 C239.577173,16.6494347 239.645013,15.7468342 239.020892,15.5914824 C237.993807,15.3333543 237.547764,16.4140327 237.05152,17.3034045 L230.027111,29.8913065 L222.148606,29.8913065 L233.111759,9.68031407" id="Fill-18" fill="#D82733"></path>
            <path d="M264.723467,21.0593216 C265.322148,19.3473995 268.183266,14.5796608 265.835352,10.870892 C264.506043,8.76719849 262.154058,8.06302764 260.099887,7.95923367 C253.338015,7.61596734 249.373153,14.2757412 247.428882,18.4888945 C245.888932,21.8279397 242.105201,30.2494975 252.223756,30.6473744 C256.590565,30.8186683 262.155075,26.7103266 263.953492,22.2580402 L256.247977,22.2570226 C255.390829,23.3695854 254.44956,25.2531407 253.165364,24.568304 C252.243769,24.0764698 252.995766,22.7712437 253.936696,21.0593216 L264.723467,21.0593216 Z M258.986307,14.8092965 C259.244435,15.3238568 258.986307,16.0076759 257.959221,18.0632035 L255.305352,18.0618467 C256.333455,16.0066583 258.130176,13.095 258.986307,14.8092965 L258.986307,14.8092965 Z" id="Fill-19" fill="#D82733"></path>
            <path d="M178.087048,7.87613065 C170.657299,7.16246231 166.05441,15.2414322 164.169837,18.4943216 C162.18995,21.9144347 161.291759,27.2957789 163.698015,29.071809 C168.10892,32.3257161 174.614359,29.8801131 176.887312,27.5735804 C179.671432,24.7487563 180.790101,23.0368342 182.58343,19.2246106 C186.950239,9.93267588 181.21206,8.17665829 178.087048,7.87613065 M171.773593,18.313191 C173.939359,14.7326382 175.063455,14.1102136 176.122764,14.7713065 C177.01892,15.3811809 176.171269,16.9553894 174.573995,19.9148744 C172.161294,23.3946859 171.341796,24.1500754 170.21397,23.405201 C169.534899,22.9622111 170.314711,21.2211181 171.773593,18.313191" id="Fill-20" fill="#D82733"></path>
        </g>
    </g>
</svg>