<?xml version="1.0" encoding="UTF-8"?>
<svg width="83px" height="83px" viewBox="0 0 83 83" version="1.1" xmlns="http://www.w3.org/2000/svg" xmlns:xlink="http://www.w3.org/1999/xlink">
    <!-- Generator: Sketch 42 (36781) - http://www.bohemiancoding.com/sketch -->
    <title>logo--sams</title>
    <desc>Created with Sketch.</desc>
    <defs>
        <polygon id="path-1" points="0.898967391 0.216195652 84.076087 0.216195652 84.076087 83.396087 0.898967391 83.396087 0.898967391 0.216195652"></polygon>
        <polygon id="path-3" points="0.898967391 0.216195652 84.076087 0.216195652 84.076087 83.396087 0.898967391 83.396087 0.898967391 0.216195652"></polygon>
    </defs>
    <g id="Page-1" stroke="none" stroke-width="1" fill="none" fill-rule="evenodd">
        <g id="logo--sams" transform="translate(-1.000000, -1.000000)">
            <g id="g2830" transform="translate(42.489105, 42.183061) scale(-1, 1) rotate(-180.000000) translate(-42.489105, -42.183061) translate(0.913018, 0.606974)" fill-rule="nonzero" fill="#004B8D">
                <polygon id="path2832" points="41.576087 0 0.386195652 41.1917391 41.5770109 82.3779348 82.7622826 41.1917391"></polygon>
            </g>
            <g id="g2834" transform="translate(42.499970, 42.337983) scale(-1, 1) rotate(-180.000000) translate(-42.499970, -42.337983) translate(-0.000030, 0.299939)">
                <g id="g2836-Clipped">
                    <mask id="mask-2" fill="white">
                        <use xlink:href="#path-1"></use>
                    </mask>
                    <g id="path2840"></g>
                </g>
            </g>
            <g id="g2846" transform="translate(35.097801, 23.247648) scale(-1, 1) rotate(-180.000000) translate(-35.097801, -23.247648) translate(27.706497, 11.236778)" fill-rule="nonzero" fill="#0081C6">
                <polygon id="path2848" points="14.7826087 21.25 12.1245109 23.9080978 0.366793478 12.1531522 12.1245109 0.396358696 14.7826087 3.05630435 5.68576087 12.1531522"></polygon>
            </g>
            <g id="g2850" transform="translate(49.512766, 23.105365) scale(-1, 1) rotate(-180.000000) translate(-49.512766, -23.105365) translate(42.121462, 11.094496)" fill-rule="nonzero" fill="#5D9732">
                <polygon id="path2852" points="14.7826087 12.0108696 3.02581522 23.7658152 0.367717391 21.1077174 9.46456522 12.0108696 0.367717391 2.91402174 3.02581522 0.254076087"></polygon>
            </g>
            <g id="g2854" transform="translate(42.489105, 23.247648) scale(-1, 1) rotate(-180.000000) translate(-42.489105, -23.247648) translate(33.249975, 14.008517)" fill-rule="nonzero" fill="#0069AA">
                <polygon id="path2856" points="9.23913043 18.4782609 0.142282609 9.38141304 9.23913043 0.284565217 18.3359783 9.38141304"></polygon>
            </g>
            <g id="g2858" transform="translate(42.499970, 42.337983) scale(-1, 1) rotate(-180.000000) translate(-42.499970, -42.337983) translate(-0.000030, 0.299939)">
                <g id="g2860-Clipped">
                    <mask id="mask-4" fill="white">
                        <use xlink:href="#path-3"></use>
                    </mask>
                    <g id="path2864"></g>
                    <g id="g2860" mask="url(#mask-4)">
                        <g transform="translate(13.858696, 22.173913)">
                            <g id="g2866" transform="translate(25.479582, 9.119484)">
                                <path d="M4.61956522,12.9347826 L4.61956522,10.9354348 C6.44336957,12.1531522 7.8911413,12.7897283 9.11070652,12.7897283 C10.4716304,12.7897283 11.4879348,12.123587 12.0681522,10.8199457 C14.0083696,12.1531522 15.6030435,12.7897283 16.8207609,12.7897283 C19.284837,12.7897283 20.0673913,11.0509239 20.0673913,7.45597826 L20.0673913,5.9786413 C20.0673913,4.78956522 20.0673913,3.1948913 19.9805435,1.16597826 L21.4606522,0.992282609 L21.4606522,0.412065217 L16.0372826,0.412065217 L16.0372826,0.992282609 L17.690163,1.19646739 C17.8361413,2.5001087 17.8657065,4.1225 17.8657065,6.06456522 C17.8657065,9.775 17.690163,11.4288043 15.4293478,11.4288043 C14.6181522,11.4288043 13.5454891,11.0509239 12.2436957,10.210163 C12.356413,9.19570652 12.3850543,8.06483696 12.3850543,6.81847826 L12.3850543,2.15086957 L12.3850543,1.16597826 L13.9233696,0.992282609 L13.9233696,0.412065217 L8.52956522,0.412065217 L8.52956522,0.992282609 L10.0946739,1.19646739 C10.1833696,2.52967391 10.1833696,4.15206522 10.1833696,6.06456522 C10.1833696,9.83320652 9.95146739,11.4288043 7.71836957,11.4288043 C6.90625,11.4288043 5.83358696,11.0509239 4.61956522,10.2388043 L4.61956522,3.94972826 C4.61956522,2.90570652 4.61956522,1.94853261 4.7036413,1.16597826 L6.41288043,0.992282609 L6.41288043,0.412065217 L0.586684783,0.412065217 L0.586684783,0.992282609 L2.29777174,1.16597826 C2.35597826,1.94853261 2.41326087,2.87798913 2.41326087,3.94972826 L2.41326087,9.25391304 C2.41326087,10.2683696 2.35597826,11.167337 2.29777174,12.0071739 L0.50076087,12.0949457 L0.586684783,12.6733152 L4.61956522,12.9347826 Z" id="path2868" fill="#FFFFFF" fill-rule="nonzero"></path>
                            </g>
                            <g id="g2870" transform="translate(45.874038, 20.898728)">
                                <polygon id="path2872" fill="#FFFFFF" fill-rule="nonzero" points="2.77173913 3.69565217 1.1401087 0.325217391 0.622717391 0.325217391 0.966413043 3.69565217"></polygon>
                            </g>
                            <g id="g2874" transform="translate(1.281652, 8.690326)">
                                <path d="M0.923913043,6.4673913 C1.27684783,2.9888587 2.90108696,1.18815217 5.43445652,1.18815217 C7.85233696,1.18815217 9.53570652,2.81146739 9.53570652,5.08152174 C9.53570652,6.02483696 9.26777174,6.79168478 8.73836957,7.41163043 C7.70543478,8.61826087 5.99434783,9.06173913 4.11048913,9.94592391 C1.54016304,11.15625 0.304891304,12.8359239 0.304891304,15.2242391 C0.304891304,18.3803261 2.60543478,20.6198913 5.82065217,20.6198913 C7.97059783,20.6198913 9.23820652,19.5888043 9.85815217,19.5888043 C10.2129348,19.5888043 10.4476087,19.7061413 10.6536413,20.0017935 L11.3336413,20.0017935 C11.2440217,19.2044565 11.1839674,18.3803261 11.1839674,17.5229348 L11.1839674,15.2833696 L10.507663,15.2833696 C10.2434239,18.2602174 8.68016304,19.91125 6.34913043,19.91125 C4.07907609,19.91125 2.57494565,18.4671739 2.57494565,16.2858152 C2.57494565,14.1617391 3.99130435,13.4549457 6.55793478,12.3647283 C10.1233152,10.8615217 11.9822283,9.71032609 11.9822283,6.23179348 C11.9822283,2.75048913 9.50521739,0.392663043 5.75967391,0.392663043 C3.54690217,0.392663043 2.16380435,1.27777174 1.42652174,1.27777174 C1.07173913,1.27777174 0.863858696,1.15858696 0.687391304,0.893423913 L0.0369565217,0.893423913 C0.128423913,1.72032609 0.15798913,2.60451087 0.15798913,3.48777174 L0.15798913,6.4673913 L0.923913043,6.4673913 Z" id="path2876" fill="#FFFFFF" fill-rule="nonzero"></path>
                            </g>
                            <g id="g2878" transform="translate(0.605440, 8.208228)">
                                <path d="M0.923913043,15.7065217 C0.923913043,13.3025 2.14347826,11.6080435 4.76092391,10.3764674 C5.25336957,10.146413 5.72826087,9.94592391 6.1911413,9.75282609 C7.49016304,9.2086413 8.61548913,8.73929348 9.36847826,7.85603261 C9.89695652,7.23978261 10.1528804,6.49048913 10.1528804,5.56380435 C10.1528804,3.30483696 8.48983696,1.7286413 6.11076087,1.7286413 C3.58108696,1.7286413 1.99934783,3.5838587 1.65842391,6.9561413 L1.65288043,7.00788043 L0.775163043,7.00788043 L0.775163043,3.97005435 C0.775163043,2.96391304 0.736358696,2.11853261 0.655978261,1.38217391 L0.64951087,1.31842391 L1.39326087,1.31842391 L1.4098913,1.34336957 C1.58451087,1.6011413 1.77853261,1.70184783 2.10282609,1.70184783 C2.36244565,1.70184783 2.71445652,1.58451087 3.16163043,1.43668478 C3.94788043,1.17521739 5.02331522,0.81673913 6.43597826,0.81673913 C10.1926087,0.81673913 12.7158152,3.18657609 12.7158152,6.71407609 C12.7158152,10.3367391 10.6536413,11.4676087 7.25548913,12.9005978 C4.73597826,13.971413 3.31038043,14.6782065 3.31038043,16.7680978 C3.31038043,18.901413 4.80342391,20.33625 7.02543478,20.33625 C9.37309783,20.33625 10.868913,18.667663 11.1276087,15.7601087 L11.1303804,15.7065217 L11.9175543,15.7065217 L11.9175543,18.0052174 C11.9175543,18.7665217 11.9665217,19.5758696 12.0663043,20.4766848 L12.0727717,20.5413587 L11.2994565,20.5413587 L11.2809783,20.516413 C11.0897283,20.240163 10.8726087,20.1283696 10.5344565,20.1283696 C10.3284239,20.1283696 10.0336957,20.2540217 9.6613587,20.4129348 C8.96380435,20.7113587 7.90869565,21.1613043 6.49695652,21.1613043 C3.26788043,21.1613043 0.923913043,18.8663043 0.923913043,15.7065217" id="path2880" fill="#FFFFFF" fill-rule="nonzero"></path>
                            </g>
                            <g id="g2882" transform="translate(47.260277, 8.467940)">
                                <path d="M0.923913043,10.1630435 C0.923913043,8.60163043 1.71570652,7.50032609 3.41108696,6.69836957 C3.41201087,6.69836957 4.32391304,6.30108696 4.32391304,6.30108696 C5.14065217,5.96201087 5.84744565,5.6663587 6.30847826,5.12032609 C6.63184783,4.74706522 6.78891304,4.29065217 6.78891304,3.72336957 C6.78891304,2.34119565 5.76706522,1.37663043 4.3063587,1.37663043 C2.73016304,1.37663043 1.78315217,2.49548913 1.56788043,4.61586957 L1.55679348,4.72766304 L0.833369565,4.72766304 L0.833369565,2.70983696 C0.833369565,2.06771739 0.8075,1.53461957 0.756684783,1.07820652 L0.740054348,0.938695652 L1.36,0.938695652 L1.39788043,0.994130435 C1.49027174,1.1336413 1.58543478,1.18353261 1.76282609,1.18353261 C1.9125,1.18353261 2.12961957,1.11054348 2.40494565,1.01907609 C2.90940217,0.85 3.60233696,0.619945652 4.51423913,0.619945652 C6.95152174,0.619945652 8.58869565,2.1601087 8.58869565,4.45233696 C8.58869565,6.8073913 7.25826087,7.53913043 5.06766304,8.46304348 C3.45728261,9.14673913 2.61744565,9.56342391 2.61744565,10.8384239 C2.61744565,12.1614674 3.50809783,13.0179348 4.8875,13.0179348 C6.32972826,13.0179348 7.24717391,11.9868478 7.40423913,10.189837 L7.41440217,10.0771196 L8.0823913,10.0771196 L8.0823913,11.62375 C8.0823913,12.1032609 8.11195652,12.5975543 8.17570652,13.1833152 L8.19048913,13.3209783 L7.55576087,13.3209783 L7.51695652,13.2664674 C7.41532609,13.1177174 7.30353261,13.0595109 7.11505435,13.0595109 C7.00326087,13.0595109 6.82309783,13.1361957 6.59673913,13.2332065 C6.14586957,13.4263043 5.46494565,13.7145652 4.55211957,13.7145652 C2.44929348,13.7145652 0.923913043,12.2215217 0.923913043,10.1630435" id="path2884" fill="#FFFFFF" fill-rule="nonzero"></path>
                            </g>
                            <g id="g2886" transform="translate(14.358440, 8.688109)">
                                <path d="M0.923913043,10.1630435 C0.98673913,12.1411413 2.88076087,13.5408696 5.50375,13.5408696 C8.25793478,13.5408696 9.38788043,12.1198913 9.38788043,9.13472826 L9.38788043,8.67092391 L9.25853261,4.38119565 C9.25853261,3.33717391 9.25853261,2.38 9.34538043,1.59744565 L11.0564674,1.42375 L11.0564674,0.843532609 L7.13445652,0.843532609 L7.06701087,2.14902174 C5.73565217,1.16228261 4.40244565,0.698478261 3.0673913,0.698478261 C1.27222826,0.698478261 0.112717391,1.82842391 0.112717391,3.48130435 C0.112717391,5.80125 2.4298913,7.16217391 7.12521739,7.77103261 L7.21483696,10.0909783 L7.21483696,10.4097283 C7.21483696,12.1790217 6.48771739,12.9606522 4.89396739,12.9606522 C3.67902174,12.9606522 2.77820652,12.41 2.77820652,11.5988043 C2.77820652,11.3086957 2.87152174,10.4817935 2.87152174,10.1630435 C2.87152174,9.62532609 2.43543478,9.18923913 1.89679348,9.18923913 C1.36,9.18923913 0.923913043,9.62532609 0.923913043,10.1630435 L0.923913043,10.1630435 Z M7.03929348,3.45266304 C7.03929348,4.64266304 7.06701087,5.91673913 7.12521739,7.30722826 C3.7048913,6.81478261 2.11021739,5.94630435 2.11021739,3.94603261 C2.11021739,2.6423913 2.95375,1.7711413 4.28233696,1.7711413 C5.18315217,1.7711413 6.05255435,2.09081522 7.03929348,2.69967391 L7.03929348,3.45266304 Z" id="path2888" fill="#FFFFFF" fill-rule="nonzero"></path>
                            </g>
                            <g id="g2890" transform="translate(14.442609, 0.760750)">
                                <path d="M4.61956522,0.923913043 C4.1936413,0.824130435 3.73538043,0.740978261 3.29375,0.740978261 C1.40619565,0.740978261 0.0951630435,1.68429348 0.0951630435,3.65315217 C0.0951630435,5.64880435 1.31472826,6.76673913 3.29375,6.76673913 C3.67625,6.76673913 4.18717391,6.69282609 4.61217391,6.52559783 L4.52902174,5.54070652 C4.08646739,5.79016304 3.68548913,5.84929348 3.26788043,5.84929348 C2.06586957,5.84929348 1.31472826,4.93092391 1.31472826,3.73722826 C1.31472826,2.55184783 2.04831522,1.65934783 3.29375,1.65934783 C3.75293478,1.65934783 4.29527174,1.76005435 4.56967391,1.90141304 L4.61956522,0.923913043 Z" id="path2892" fill="#FFFFFF" fill-rule="nonzero"></path>
                            </g>
                            <g id="g2894" transform="translate(22.759951, 0.960500)">
                                <polygon id="path2896" fill="#FFFFFF" fill-rule="nonzero" points="0 6.4673913 1.16967391 6.4673913 1.16967391 1.55956522 3.43141304 1.55956522 3.43141304 0.641195652 0 0.641195652"></polygon>
                            </g>
                            <g id="g2898" transform="translate(29.730598, 0.960500)">
                                <path d="M0,6.4673913 L1.16782609,6.4673913 L1.16782609,3.10434783 C1.16782609,2.11021739 1.48380435,1.4588587 2.37815217,1.4588587 C3.27157609,1.4588587 3.59032609,2.11021739 3.59032609,3.10434783 L3.59032609,6.4673913 L4.75722826,6.4673913 L4.75722826,2.74494565 C4.75722826,1.18353261 3.87396739,0.541413043 2.37815217,0.541413043 C0.884184783,0.541413043 0,1.18353261 0,2.74494565 L0,6.4673913 Z" id="path2900" fill="#FFFFFF" fill-rule="nonzero"></path>
                            </g>
                            <g id="g2902" transform="translate(37.957951, 1.596522)">
                                <path d="M1.84782609,0.923913043 L2.39755435,0.923913043 C2.93896739,0.923913043 3.59956522,1.05788043 3.59956522,1.73326087 C3.59956522,2.49179348 2.9823913,2.60913043 2.39755435,2.60913043 L1.84782609,2.60913043 L1.84782609,0.923913043 Z M1.84782609,3.4776087 L2.3236413,3.4776087 C2.81608696,3.4776087 3.42494565,3.58570652 3.42494565,4.18717391 C3.42494565,4.86255435 2.83271739,4.91244565 2.29869565,4.91244565 L1.84782609,4.91244565 L1.84782609,3.4776087 Z M0.679076087,5.83173913 L2.71538043,5.83173913 C3.46652174,5.83173913 4.59369565,5.61554348 4.59369565,4.33684783 C4.59369565,3.64391304 4.12527174,3.15978261 3.43418478,3.03597826 L3.43418478,3.0175 C4.22782609,2.94358696 4.77016304,2.40956522 4.77016304,1.69076087 C4.77016304,0.22173913 3.45081522,0.00554347826 2.71538043,0.00554347826 L0.679076087,0.00554347826 L0.679076087,5.83173913 L0.679076087,5.83173913 Z" id="path2904" fill="#FFFFFF" fill-rule="nonzero"></path>
                            </g>
                        </g>
                    </g>
                </g>
            </g>
        </g>
    </g>
</svg>