<?xml version="1.0" encoding="UTF-8"?>
<svg width="83px" height="83px" viewBox="0 0 83 83" version="1.1" xmlns="http://www.w3.org/2000/svg" xmlns:xlink="http://www.w3.org/1999/xlink">
    <!-- Generator: Sketch 42 (36781) - http://www.bohemiancoding.com/sketch -->
    <title>logo--gray--sams</title>
    <desc>Created with Sketch.</desc>
    <defs></defs>
    <g id="Page-1" stroke="none" stroke-width="1" fill="none" fill-rule="evenodd">
        <g id="logo--gray--sams" transform="translate(-1.000000, -1.000000)">
            <g id="g2830" transform="translate(42.413018, 42.259148) scale(-1, 1) rotate(-180.000000) translate(-42.413018, -42.259148) translate(0.913018, 0.759148)" fill-rule="nonzero" fill="#EDEDED">
                <path d="M41.576087,0 L82.7622826,41.1917391 L41.5770109,82.3779348 L0.386195652,41.1917391 L41.576087,0 Z M14.475001,45.4717837 C14.475001,48.6315663 16.8189684,50.9265663 20.0480445,50.9265663 C21.4597836,50.9265663 22.5148923,50.4766207 23.2124467,50.1781968 C23.5847837,50.0192837 23.8795119,49.8936316 24.0855445,49.8936316 C24.4236967,49.8936316 24.6408163,50.005425 24.8320663,50.281675 L24.8505445,50.3066207 L25.6238597,50.3066207 L25.6173923,50.2419468 C25.5176097,49.3411316 25.4686423,48.5317837 25.4686423,47.7704794 L25.4686423,45.4717837 L24.6814684,45.4717837 L24.6786967,45.5253707 C24.420001,48.432925 22.9241858,50.101512 20.5765228,50.101512 C18.3545119,50.101512 16.8614684,48.666675 16.8614684,46.5333598 C16.8614684,44.4434685 18.2870663,43.736675 20.8065771,42.6658598 C24.2047293,41.2328707 26.2669032,40.1020011 26.2669032,36.4793381 C26.2669032,32.9518381 23.7436967,30.5820011 19.9870663,30.5820011 C18.5744032,30.5820011 17.4989684,30.9404794 16.7127184,31.2019468 C16.2655445,31.3497729 15.9135336,31.4671098 15.6539141,31.4671098 C15.3296206,31.4671098 15.1355989,31.3664033 14.9609793,31.1086316 L14.9443489,31.0836859 L14.2005989,31.0836859 L14.2070663,31.1474359 C14.2874467,31.8837946 14.326251,32.729175 14.326251,33.7353164 L14.326251,36.7731424 L15.2039684,36.7731424 L15.2095119,36.7214033 C15.5504358,33.3491207 17.132175,31.4939033 19.6618489,31.4939033 C22.040925,31.4939033 23.7039684,33.070099 23.7039684,35.3290664 C23.7039684,36.2557511 23.4480445,37.0050446 22.9195663,37.6212946 C22.1665771,38.5045555 21.041251,38.9739033 19.7422293,39.5180881 C19.2793489,39.7111859 18.8044576,39.911675 18.3120119,40.1417294 C15.6945663,41.3733055 14.475001,43.067762 14.475001,45.4717837 Z M61.129838,40.1880175 C61.129838,42.2464957 62.6552185,43.7395392 64.7580446,43.7395392 C65.6708706,43.7395392 66.3517946,43.4512783 66.8026641,43.2581805 C67.0290228,43.1611697 67.2091859,43.0844849 67.3209793,43.0844849 C67.5094576,43.0844849 67.6212511,43.1426914 67.7228815,43.2914414 L67.7616859,43.3459523 L68.3964141,43.3459523 L68.3816315,43.2082892 C68.3178815,42.6225283 68.2883163,42.1282349 68.2883163,41.648724 L68.2883163,40.1020936 L67.6203272,40.1020936 L67.6101641,40.214811 C67.4530989,42.0118218 66.5356533,43.0429088 65.093425,43.0429088 C63.7140228,43.0429088 62.8233706,42.1864414 62.8233706,40.8633979 C62.8233706,39.5883979 63.6632076,39.1717131 65.273588,38.4880175 C67.4641859,37.5641044 68.7946206,36.8323653 68.7946206,34.477311 C68.7946206,32.1850827 67.1574467,30.6449197 64.7201641,30.6449197 C63.808262,30.6449197 63.1153272,30.874974 62.6108706,31.0440501 C62.3355446,31.1355175 62.118425,31.2085066 61.9687511,31.2085066 C61.7913598,31.2085066 61.6961967,31.1586153 61.6038054,31.0191044 L61.565925,30.9636697 L60.9459793,30.9636697 L60.9626098,31.1031805 C61.013425,31.5595936 61.0392946,32.0926914 61.0392946,32.734811 L61.0392946,34.752637 L61.7627185,34.752637 L61.7738054,34.6408436 C61.9890772,32.5204631 62.936088,31.4016044 64.5122837,31.4016044 C65.9729902,31.4016044 66.994838,32.3661696 66.994838,33.7483436 C66.994838,34.3156262 66.8377728,34.7720392 66.5144033,35.1453001 C66.0533706,35.6913327 65.3465772,35.9869849 64.529838,36.326061 C64.529838,36.326061 63.6179359,36.7233436 63.617012,36.7233436 C61.9216315,37.5253001 61.129838,38.6266044 61.129838,40.1880175 Z M28.228001,40.4081865 C28.2908271,42.3862843 30.1848489,43.7860126 32.807838,43.7860126 C35.5620228,43.7860126 36.6919684,42.3650343 36.6919684,39.3798713 L36.6919684,38.9160669 L36.5626206,34.6263387 C36.5626206,33.5823169 36.5626206,32.625143 36.6494684,31.8425887 L38.3605554,31.668893 L38.3605554,31.0886756 L34.4385445,31.0886756 L34.3710989,32.3941647 C33.0397402,31.4074256 31.7065337,30.9436213 30.3714793,30.9436213 C28.5763163,30.9436213 27.4168054,32.0735669 27.4168054,33.7264474 C27.4168054,36.046393 29.7339793,37.4073169 34.4293054,38.0161756 L34.518925,40.3361213 L34.518925,40.6548713 C34.518925,42.4241647 33.7918054,43.2057952 32.1980554,43.2057952 C30.9831097,43.2057952 30.0822945,42.655143 30.0822945,41.8439473 C30.0822945,41.5538387 30.1756097,40.7269365 30.1756097,40.4081865 C30.1756097,39.8704691 29.7395228,39.4343821 29.2008815,39.4343821 C28.664088,39.4343821 28.228001,39.8704691 28.228001,40.4081865 Z M32.0078222,23.241697 C31.5818983,23.1419144 31.1236374,23.0587623 30.682007,23.0587623 C28.7944526,23.0587623 27.48342,24.0020775 27.48342,25.9709362 C27.48342,27.9665884 28.7029853,29.0845231 30.682007,29.0845231 C31.064507,29.0845231 31.5754309,29.0106101 32.0004309,28.8433818 L31.9172787,27.8584905 C31.4747244,28.107947 31.0737461,28.1670775 30.6561374,28.1670775 C29.4541266,28.1670775 28.7029853,27.2487079 28.7029853,26.0550123 C28.7029853,24.8696318 29.4365722,23.9771318 30.682007,23.9771318 C31.1411918,23.9771318 31.6835287,24.0778384 31.9579309,24.219197 L32.0078222,23.241697 Z M35.705599,28.9849253 L36.8752729,28.9849253 L36.8752729,24.0770992 L39.137012,24.0770992 L39.137012,23.1587297 L35.705599,23.1587297 L35.705599,28.9849253 Z M42.676246,28.9849253 L43.8440721,28.9849253 L43.8440721,25.6218818 C43.8440721,24.6277514 44.1600503,23.9763927 45.0543982,23.9763927 C45.9478221,23.9763927 46.2665721,24.6277514 46.2665721,25.6218818 L46.2665721,28.9849253 L47.4334743,28.9849253 L47.4334743,25.2624796 C47.4334743,23.7010666 46.5502134,23.058947 45.0543982,23.058947 C43.5604308,23.058947 42.676246,23.7010666 42.676246,25.2624796 L42.676246,28.9849253 Z M51.5826751,28.9852951 L53.6189794,28.9852951 C54.3701207,28.9852951 55.4972946,28.7690995 55.4972946,27.4904038 C55.4972946,26.797469 55.0288707,26.3133386 54.3377838,26.1895343 L54.3377838,26.171056 C55.1314251,26.097143 55.673762,25.5631212 55.673762,24.8443169 C55.673762,23.3752951 54.3544142,23.1590995 53.6189794,23.1590995 L51.5826751,23.1590995 L51.5826751,28.9852951 Z M52.7514251,24.077469 L53.3011533,24.077469 C53.8425664,24.077469 54.5031642,24.2114364 54.5031642,24.8868169 C54.5031642,25.6453495 53.8859903,25.7626864 53.3011533,25.7626864 L52.7514251,25.7626864 L52.7514251,24.077469 Z M52.7514251,26.6311647 L53.2272403,26.6311647 C53.719686,26.6311647 54.3285446,26.7392625 54.3285446,27.3407299 C54.3285446,28.0161103 53.7363164,28.0660016 53.2022946,28.0660016 L52.7514251,28.0660016 L52.7514251,26.6311647 Z M34.3433815,33.697806 C34.3433815,34.887806 34.3710989,36.1618821 34.4293054,37.5523713 C31.0089793,37.0599256 29.4143054,36.1914473 29.4143054,34.1911756 C29.4143054,32.8875343 30.257838,32.0162843 31.586425,32.0162843 C32.4872402,32.0162843 33.3566424,32.3359582 34.3433815,32.9448169 L34.3433815,33.697806 Z M43.0447952,43.6113006 L43.0447952,41.6119528 C44.8685996,42.8296702 46.3163713,43.4662463 47.5359365,43.4662463 C48.8968604,43.4662463 49.9131648,42.800105 50.4933822,41.4964637 C52.4335996,42.8296702 54.0282735,43.4662463 55.2459909,43.4662463 C57.710067,43.4662463 58.4926213,41.7274419 58.4926213,38.1324963 L58.4926213,36.6551593 C58.4926213,35.4660832 58.4926213,33.8714093 58.4057735,31.8424963 L59.8858822,31.6688006 L59.8858822,31.0885832 L54.4625126,31.0885832 L54.4625126,31.6688006 L56.115393,31.8729854 C56.2613713,33.1766267 56.2909365,34.799018 56.2909365,36.7410832 C56.2909365,40.451518 56.115393,42.1053223 53.8545778,42.1053223 C53.0433822,42.1053223 51.9707191,41.7274419 50.6689257,40.886681 C50.781643,39.8722245 50.8102843,38.741355 50.8102843,37.4949963 L50.8102843,32.8273876 L50.8102843,31.8424963 L52.3485996,31.6688006 L52.3485996,31.0885832 L46.9547952,31.0885832 L46.9547952,31.6688006 L48.5199039,31.8729854 C48.6085996,33.2061919 48.6085996,34.8285832 48.6085996,36.7410832 C48.6085996,40.5097245 48.3766974,42.1053223 46.1435996,42.1053223 C45.33148,42.1053223 44.258817,41.7274419 43.0447952,40.9153223 L43.0447952,34.6262463 C43.0447952,33.5822245 43.0447952,32.6250506 43.1288713,31.8424963 L44.8381104,31.6688006 L44.8381104,31.0885832 L39.0119148,31.0885832 L39.0119148,31.6688006 L40.7230017,31.8424963 C40.7812083,32.6250506 40.8384909,33.5545071 40.8384909,34.6262463 L40.8384909,39.930431 C40.8384909,40.9448876 40.7812083,41.843855 40.7230017,42.6836919 L38.9259909,42.7714637 L39.0119148,43.3498332 L43.0447952,43.6113006 Z M61.5914251,46.1514142 L59.9597947,42.7809794 L59.4424034,42.7809794 L59.786099,46.1514142 L61.5914251,46.1514142 Z M41.5760877,69.75063 L32.4792399,60.6537822 L41.5760877,51.5569343 L38.9179899,48.8969887 L27.1602725,60.6537822 L38.9179899,72.4087278 L41.5760877,69.75063 Z M55.9910527,60.6537836 L44.2342592,48.8969901 L41.5761614,51.5569357 L50.6730092,60.6537836 L41.5761614,69.7506314 L44.2342592,72.4087292 L55.9910527,60.6537836 Z" id="Combined-Shape"></path>
            </g>
            <g id="g2846" transform="translate(35.206497, 23.258518) scale(-1, 1) rotate(-180.000000) translate(-35.206497, -23.258518) translate(27.706497, 11.258518)"></g>
            <g id="g2850" transform="translate(49.621462, 23.116234) scale(-1, 1) rotate(-180.000000) translate(-49.621462, -23.116234) translate(42.121462, 11.116234)"></g>
            <g id="g2858" transform="translate(41.999970, 46.376027) scale(-1, 1) rotate(-180.000000) translate(-41.999970, -46.376027) translate(12.999970, 30.376027)">
                <g id="g2860-Clipped">
                    <g id="g2860">
                        <g transform="translate(0.000000, 0.000000)">
                            <g id="Group" transform="translate(0.858696, 0.173913)">
                                <g id="g2866" transform="translate(25.479582, 9.119484)"></g>
                                <g id="g2870" transform="translate(45.874038, 20.898728)"></g>
                                <g id="g2874" transform="translate(1.281652, 8.690326)"></g>
                                <g id="g2878" transform="translate(0.605440, 8.208228)"></g>
                                <g id="g2882" transform="translate(47.260277, 8.467940)"></g>
                                <g id="g2886" transform="translate(14.358440, 8.688109)"></g>
                                <g id="g2890" transform="translate(14.442609, 0.760750)"></g>
                                <g id="g2894" transform="translate(22.759951, 0.960500)"></g>
                                <g id="g2898" transform="translate(29.730598, 0.960500)"></g>
                                <g id="g2902" transform="translate(37.957951, 1.596522)"></g>
                            </g>
                        </g>
                    </g>
                </g>
            </g>
        </g>
    </g>
</svg>