<?xml version="1.0" encoding="UTF-8"?>
<svg width="269px" height="65px" viewBox="0 0 269 65" version="1.1" xmlns="http://www.w3.org/2000/svg" xmlns:xlink="http://www.w3.org/1999/xlink">
    <!-- Generator: Sketch 42 (36781) - http://www.bohemiancoding.com/sketch -->
    <title>New_Walmart_Logo</title>
    <desc>Created with Sketch.</desc>
    <defs></defs>
    <g id="Page-1" stroke="none" stroke-width="1" fill="none" fill-rule="evenodd">
        <g id="New_Walmart_Logo" fill-rule="nonzero">
            <g id="svg2">
                <g id="layer1" transform="translate(0.013833, 0.139510)">
                    <path d="M239.242332,21.7023564 C240.756356,21.7023564 242.00284,20.9240345 242.171175,19.9189488 L243.666157,3.21204351 C243.666157,1.56039093 241.708245,0.20476429 239.247339,0.20476429 C236.788428,0.20476429 234.832528,1.56039103 234.832528,3.21204351 L236.326507,19.9189488 C236.490837,20.9240344 237.737321,21.7023564 239.247339,21.7023564 L239.242332,21.7023564" id="path2974" fill="#FFC220"></path>
                    <path d="M230.105088,26.9208242 C230.864607,25.6266027 230.807486,24.1719783 230.006892,23.5254115 L216.11116,13.8925446 C214.666274,13.0657513 212.499946,14.0609251 211.270495,16.1680392 C210.03703,18.2722523 210.255468,20.6230528 211.696348,21.4498461 L227.083064,28.5299283 C228.044983,28.8824033 229.3566,28.2041669 230.11011,26.9109123 L230.105103,26.9208242" id="path2976" fill="#FFC220"></path>
                    <path d="M248.387588,26.9118794 C249.146106,28.205134 250.450704,28.8833704 251.413625,28.5308954 L266.800341,21.4508131 C268.250234,20.6240199 268.456647,18.2732193 267.234206,16.1690063 C265.998741,14.0638261 263.828408,13.0665975 262.387528,13.8935116 L248.490783,23.5263785 C247.696197,24.1719783 247.637081,25.6275696 248.392587,26.9217913 L248.386578,26.9118794" id="path2978" fill="#FFC220"></path>
                    <path d="M239.242332,42.5721176 C240.756356,42.5721176 242.00284,43.3435495 242.171175,44.3496022 L243.666157,61.0545735 C243.666157,62.7111819 241.708245,64.0637867 239.247339,64.0637867 C236.788428,64.0637867 234.832528,62.7111819 234.832528,61.0545735 L236.326507,44.3496022 C236.490837,43.3435495 237.737321,42.5721176 239.247339,42.5721176 L239.242332,42.5721176" id="path2980" fill="#FFC220"></path>
                    <path d="M248.387588,37.3526829 C249.146106,36.0554394 250.450704,35.3831259 251.413625,35.7395899 L266.800341,42.8147161 C268.250234,43.6425973 268.456647,45.9953318 267.234206,48.101479 C265.998741,50.1997691 263.828408,51.1998988 262.387528,50.3740725 L248.490783,40.7501505 C247.696197,40.0995948 247.637081,38.6429155 248.392587,37.3497818 L248.386578,37.3497818" id="path2982" fill="#FFC220"></path>
                    <path d="M230.105088,37.3507489 C230.864607,38.6430364 230.807486,40.0995948 230.006892,40.7511176 L216.11116,50.3750396 C214.666274,51.2008659 212.499946,50.2007361 211.270495,48.102446 C210.03703,45.996299 210.255468,43.6434435 211.696348,42.8156832 L227.083064,35.7405569 C228.044983,35.3840929 229.3566,36.0564064 230.11011,37.3536499 L230.105103,37.3536499" id="path2984" fill="#FFC220"></path>
                    <path d="M151.590357,40.7194479 C151.590357,41.2323256 151.54426,41.7611591 151.401978,42.2255655 C150.812804,44.154508 148.791771,45.7853699 146.263714,45.7853699 C144.155502,45.7853699 142.481169,44.6021126 142.481169,42.1027553 C142.481169,38.2775068 146.741673,37.2209278 151.591351,37.2477623 L151.591351,40.7194479 L151.590357,40.7194479 L151.590357,40.7194479 Z M159.197539,34.0532458 C159.197539,27.7455625 156.470086,22.1954105 147.254691,22.1954105 C142.524254,22.1954105 138.76975,23.5084887 136.720661,24.678933 L138.221659,29.7498109 C140.094401,28.5813006 143.079363,27.6139283 145.904002,27.6139283 C150.578327,27.6011154 151.343863,30.2300522 151.343863,31.9124072 L151.343863,32.3104526 C141.154516,32.2955848 134.713664,35.7821381 134.713664,42.8849452 C134.713664,47.2251263 137.994215,51.2899515 143.696593,51.2899515 C147.200582,51.2899515 150.135442,49.9076112 151.891954,47.6914668 L152.065305,47.6914668 C152.065305,47.6914668 153.227629,52.5029443 159.643436,50.6621205 C159.308769,48.660894 159.198548,46.5250114 159.198548,43.9563918 L159.198548,34.0532457 L159.197539,34.0532458 Z" id="path2986" fill="#007DC6"></path>
                    <path d="M0.438619724,13.6053427 C0.438619724,13.6053427 7.09690076,40.56799 8.1600278,44.9437088 C9.40051079,50.0512122 11.635961,51.9316833 18.0778372,50.6622414 L22.2351232,33.9463913 C23.2892296,29.7924803 23.9946478,26.8306505 24.6739825,22.6094116 L24.79223,22.6094116 C25.2691954,26.8752539 25.9455334,29.8052932 26.813263,33.9602921 C26.813263,33.9602921 28.5046278,41.5492631 29.3723573,45.5339474 C30.241096,49.5175438 32.6589171,52.0298349 38.9695192,50.6622415 L48.8762896,13.6043757 L40.8803161,13.6043757 L37.4965469,29.6271217 C36.5867411,34.2890754 35.7620969,37.9350645 35.1258168,42.1999398 L35.0125842,42.1999398 C34.4344342,37.973745 33.6979481,34.4752248 32.7741067,29.9320924 L29.2540791,13.6043757 L20.921435,13.6043757 L17.153904,29.5201462 C16.0877803,34.3583374 15.0877677,38.2627599 14.454515,42.3850013 L14.3392948,42.3850013 C13.6890098,38.5033036 12.8232678,33.5937954 11.8864,28.9131059 C11.8864,28.9131059 9.64994073,17.5286219 8.86336678,13.6043757 L0.438558702,13.6043757" id="path2988" fill="#007DC6"></path>
                    <path d="M64.0014855,40.7194479 C64.0014855,41.2323256 63.9554035,41.7611591 63.811103,42.2255655 C63.2229232,44.154508 61.2008812,45.7853699 58.6728548,45.7853699 C56.5646422,45.7853699 54.8922973,44.6021126 54.8922973,42.1027553 C54.8922973,38.2775068 59.1518077,37.2209278 64.0024946,37.2477623 L64.0024946,40.7194479 L64.0014855,40.7194479 L64.0014855,40.7194479 Z M71.6076733,34.0532458 C71.6076733,27.7455625 68.8802435,22.1954105 59.6668434,22.1954105 C54.9353825,22.1954105 51.1778813,23.5084887 49.129817,24.678933 L50.6288116,29.7498109 C52.5015382,28.5813006 55.486501,27.6139283 58.3121493,27.6139283 C62.989486,27.6011154 63.7550218,30.2300522 63.7550218,31.9124072 L63.7550218,32.3104526 C53.5616684,32.2955848 47.1238288,35.7821381 47.1238288,42.8849452 C47.1238288,47.2251263 50.402377,51.2899515 56.1007339,51.2899515 C59.6097532,51.2899515 62.5425795,49.9076112 64.3010949,47.6914668 L64.472427,47.6914668 C64.472427,47.6914668 65.6377477,52.5029443 72.0525617,50.6621205 C71.7169001,48.660894 71.6076734,46.5250114 71.6076734,43.9563918 L71.6076734,34.0532458 L71.6076733,34.0532458 Z" id="path2990" fill="#007DC6"></path>
                    <polyline id="path2992" fill="#007DC6" points="84.3020215 42.7959803 84.3020215 13.6053427 76.6858192 13.6053427 76.6858192 50.6632085 84.3020215 50.6632085 84.3020215 42.7959803"></polyline>
                    <path d="M183.933917,13.6053427 L183.933917,40.9423437 C183.933917,44.7130771 184.653355,47.3520465 186.187409,48.9670735 C187.531094,50.3791494 189.739498,51.2930944 192.38779,51.2930944 C194.640288,51.2930944 196.854715,50.8683354 197.899801,50.485037 L197.801598,44.6051346 C197.024044,44.793218 196.131256,44.9447968 194.908829,44.9447968 C192.313652,44.9447968 191.445923,43.3019682 191.445923,39.9184013 L191.445923,29.4587411 L198.078166,29.4587411 L198.078166,22.3677801 L191.445923,22.3677801 L191.445923,13.6053428 L183.933932,13.6053428" id="path2994" fill="#007DC6"></path>
                    <path d="M164.275685,22.8242085 L164.275685,50.6632085 L172.132373,50.6632085 L172.132373,36.4090023 C172.132373,35.6386582 172.179464,34.9671909 172.302711,34.3532606 C172.883873,31.3658051 175.194485,29.4586202 178.513107,29.4586202 C179.422928,29.4586202 180.074222,29.5566508 180.779625,29.6556484 L180.779625,22.3676591 C180.187439,22.2507718 179.785636,22.1963775 179.049165,22.1963775 C176.117318,22.1963775 172.781649,24.065849 171.381866,28.0762799 L171.169437,28.0762799 L171.169437,22.8242085 L164.275669,22.8242085" id="path2996" fill="#007DC6"></path>
                    <path d="M89.6346735,22.8242085 L89.6346735,50.6632085 L97.2889461,50.6632085 L97.2889461,34.3385137 C97.2889461,33.5720376 97.3801315,32.7620462 97.6486577,32.0599971 C98.2829195,30.4162015 99.8310082,28.4912479 102.300951,28.4912479 C105.391119,28.4912479 106.834002,31.0717132 106.834002,34.7959093 L106.834002,50.6621206 L114.482266,50.6621206 L114.482266,34.1383427 C114.482266,33.4075252 114.583466,32.5262167 114.801904,31.8815839 C115.430157,30.0110246 117.097487,28.4900393 119.39408,28.4900393 C122.525331,28.4900393 124.028331,31.0250551 124.028331,35.4087517 L124.028331,50.6610327 L131.68161,50.6610327 L131.68161,34.264054 C131.68161,25.617416 127.238735,22.1943227 122.222725,22.1943227 C120.003298,22.1943227 118.249797,22.7439468 116.663623,23.7034622 C115.331969,24.5144207 114.137584,25.6631073 113.095495,27.1732138 L112.982262,27.1732138 C111.772847,24.1728245 108.92717,22.1944436 105.218763,22.1944436 C100.454246,22.1944436 98.3129783,24.5809026 97.0143807,26.6048539 L96.9001543,26.6048539 L96.9001543,22.8222746 L89.6346429,22.8222746" id="path2998" fill="#007DC6"></path>
                </g>
            </g>
        </g>
    </g>
</svg>