<?xml version="1.0" encoding="UTF-8"?>
<svg width="268px" height="46px" viewBox="0 0 268 46" version="1.1" xmlns="http://www.w3.org/2000/svg" xmlns:xlink="http://www.w3.org/1999/xlink">
    <!-- Generator: Sketch 42 (36781) - http://www.bohemiancoding.com/sketch -->
    <title>logo--purina</title>
    <desc>Created with Sketch.</desc>
    <defs>
        <polygon id="path-1" points="0.113561836 48.1113773 269.425926 48.1113773 269.425926 0.0282515785 0.113561836 0.0282515785"></polygon>
    </defs>
    <g id="Page-1" stroke="none" stroke-width="1" fill="none" fill-rule="evenodd">
        <g id="logo--purina" transform="translate(-1.000000, -3.000000)">
            <g id="Page-1">
                <g id="logo--purina" transform="translate(0.000000, 0.597990)">
                    <g id="layer1" transform="translate(0.000000, 0.024721)">
                        <g id="g7315" transform="translate(135.150455, 24.934485) scale(-1, 1) rotate(-180.000000) translate(-135.150455, -24.934485) translate(0.150455, 0.434485)">
                            <g id="g7317-Clipped" transform="translate(-0.000000, 0.000000)">
                                <g>
                                    <mask id="mask-2" fill="white">
                                        <use xlink:href="#path-1"></use>
                                    </mask>
                                    <g id="path-1"></g>
                                </g>
                            </g>
                        </g>
                        <path d="M48.6335061,48.0004381 L48.6335061,2.75429614 L268.281232,2.75429614 L268.281232,48.0004381 L48.6335061,48.0004381 Z M75.7079218,11.5541063 C74.1654621,11.0009043 72.0437648,10.7145404 69.4079131,10.7145404 L58.3243237,10.7145404 L58.3243237,12.3416088 L59.8407517,12.3416088 C60.8234996,12.3416088 61.5329032,12.608447 62.0145161,13.1486332 C62.1902396,13.3568982 62.4831095,14.0337566 62.4831095,16.2986357 L62.4831095,35.2377131 C62.4831095,37.3008371 62.2618287,37.9646796 62.1251566,38.1794543 C61.6760851,38.8563127 60.9276339,39.1882377 59.8407517,39.1882377 L58.3243237,39.1882377 L58.3243237,40.8218121 L71.6402508,40.8218121 L71.6402508,39.1882377 L70.1173167,39.1882377 C69.1410749,39.1882377 68.4381811,38.9279055 67.9826036,38.3877193 C67.7938606,38.1794543 67.4879748,37.4960862 67.4879748,35.2377131 L67.4879748,27.2390469 C68.2169003,27.3952447 68.9393197,27.518901 69.6226879,27.6100157 C70.4557477,27.7141501 71.2367404,27.7662172 71.9461403,27.7662172 C74.8943876,27.7662172 77.2178437,26.972205 78.857928,25.3972037 C80.4980123,23.8222025 81.3245623,21.7525724 81.3245623,19.2533928 C81.3245623,17.4050436 80.7778701,15.7779752 79.6909879,14.4242548 C78.6171215,13.0835502 77.276417,12.1203243 75.7079218,11.5541063 Z M110.162724,10.538817 L109.746195,10.538817 L109.746195,12.1658854 L111.249606,12.1658854 C112.225847,12.1658854 112.935248,12.4262138 113.410353,12.9729098 C113.592584,13.1811748 113.904981,13.8775588 113.904981,16.1229123 L113.904981,27.9484468 C113.904981,30.9813028 113.631634,33.1420513 113.104464,34.3851313 C112.59031,35.58916 111.601053,36.5979433 110.17574,37.3854458 C108.737412,38.1794543 107.071294,38.5829647 105.229453,38.5829647 C103.804141,38.5829647 102.587094,38.3291423 101.623869,37.8280074 C100.660644,37.3333786 99.9187011,36.7020739 99.4110561,35.9471167 C98.8969023,35.1856459 98.5389471,34.0922577 98.3436991,32.6929799 C98.1354342,31.2611568 98.0313017,29.9660134 98.0313017,28.8530957 L98.0313017,16.1229123 C98.0313017,14.1964641 98.2786161,13.4284873 98.4868811,13.1226015 C98.9164272,12.478281 99.6323373,12.1658854 100.673661,12.1658854 L102.190089,12.1658854 L102.190089,10.538817 L88.8741608,10.538817 L88.8741608,12.1658854 L90.3710632,12.1658854 C91.3212732,12.1658854 92.0046414,12.4001821 92.4081536,12.8622694 C92.6945174,13.1876808 93.0329477,14.0207407 93.0329477,16.1229123 L93.0329477,27.5449327 C93.0329477,31.1505164 93.2672455,33.5520714 93.7488578,34.8862662 C94.4647678,36.83224 95.7013399,38.4007352 97.4260325,39.5527004 C99.1442167,40.7046619 101.662919,41.2838994 104.930072,41.2838994 C107.930386,41.2838994 110.351464,40.6786302 112.121714,39.4811076 C113.891965,38.283585 115.095996,36.8127143 115.707773,35.1205666 C116.306534,33.4674628 116.605915,31.1309945 116.605915,28.1697276 L116.605915,16.337687 C116.605915,14.3071046 116.840213,13.6497719 116.983395,13.4349971 C117.523582,12.5759055 118.265525,12.1658854 119.261291,12.1658854 L120.764702,12.1658854 L120.764702,10.538817 L120.348172,10.538817 L110.162724,10.538817 Z M155.850805,38.0362724 C154.913614,37.4310032 153.755141,36.1683975 152.414437,34.2875068 C152.407928,34.280997 148.014844,28.2087789 146.713189,26.405987 C148.945527,25.8202434 150.650694,24.889559 151.776626,23.6204436 C153.013198,22.2276756 153.6445,20.5550498 153.6445,18.6611394 C153.6445,16.884383 153.091297,15.3289037 152.004415,14.0402663 C150.93055,12.7711546 149.602862,11.8860276 148.053893,11.4109244 C146.543974,10.9423273 144.194487,10.7080306 141.064007,10.7080306 L129.999942,10.7080306 L129.999942,12.335099 L131.503353,12.335099 C132.486103,12.335099 133.188996,12.6019372 133.6641,13.1421234 C133.85284,13.3503884 134.158729,14.0337566 134.158729,16.2921297 L134.158729,35.231207 C134.158729,37.2878212 133.917923,37.9516637 133.781249,38.1664385 C133.332178,38.8498066 132.590235,39.1817279 131.503353,39.1817279 L129.999942,39.1817279 L129.999942,40.8087963 L143.31587,40.8087963 L143.31587,39.1817279 L141.766901,39.1817279 C140.803676,39.1817279 140.113799,38.9213957 139.651712,38.3812095 C139.462972,38.1729446 139.157083,37.4895764 139.157083,35.231207 L139.157083,27.1349126 C139.228674,27.1414223 139.306773,27.1479284 139.378365,27.1479284 C139.567104,27.1544382 139.768861,27.1544382 139.977126,27.1544382 C140.393655,27.1544382 140.914317,27.1414223 141.513078,27.1218967 L151.327555,40.6395826 L151.451212,40.8087963 L159.931493,40.8087963 L159.931493,39.2272852 L159.554013,39.1882377 C158.031077,39.0190203 156.787997,38.6350319 155.850805,38.0362724 Z M168.906403,10.7210465 L168.489873,10.7210465 L168.489873,12.3481149 L169.934708,12.3481149 C170.546487,12.3481149 171.13874,12.5043127 171.704958,12.816712 C172.056405,13.0184672 172.290706,13.2592737 172.394836,13.5326217 C172.511986,13.8189855 172.648658,14.5348952 172.648658,16.3051455 L172.648658,35.2377131 C172.648658,37.4049677 172.37531,38.0948457 172.212607,38.3096204 C171.757025,38.9018738 171.008574,39.1947437 169.934708,39.1947437 L168.489873,39.1947437 L168.489873,40.8218121 L181.8058,40.8218121 L181.8058,39.1947437 L180.341439,39.1947437 C179.73617,39.1947437 179.150426,39.0385459 178.60373,38.7326564 C178.239267,38.5243914 177.998461,38.283585 177.894326,38.0167468 C177.77718,37.7303829 177.647014,37.0079634 177.647014,35.2377131 L177.647014,16.3051455 C177.647014,14.1378909 177.926868,13.4545228 178.089576,13.239748 C178.551663,12.6409886 179.287098,12.3481149 180.341439,12.3481149 L181.8058,12.3481149 L181.8058,10.7210465 L181.382764,10.7210465 L168.906403,10.7210465 Z M225.50886,11.9250789 L225.50886,10.7145404 L214.483844,10.7145404 L214.483844,12.3416088 L215.922173,12.3416088 C216.943968,12.3416088 217.692423,12.6019372 218.141491,13.1160917 C218.330234,13.3243567 218.64263,14.0077248 218.64263,16.2270466 L218.64263,31.9054774 L201.33713,10.8707382 L201.213474,10.7145404 L192.655092,10.7145404 L192.655092,12.3416088 L193.078132,12.3416088 C193.878647,12.3416088 194.47741,12.4066881 194.848382,12.5238383 C195.648897,12.7841705 196.254166,13.0640246 196.66419,13.3568982 C197.041669,13.6367523 197.640432,14.2550411 198.414915,15.1661961 L198.414915,35.3093059 C198.414915,37.3529043 198.167602,38.0232566 198.011401,38.2445374 C197.575349,38.8823481 196.813878,39.1882377 195.694458,39.1882377 L194.256129,39.1882377 L194.256129,40.8153061 L205.281145,40.8153061 L205.281145,39.1882377 L203.82329,39.1882377 C202.808001,39.1882377 202.05955,38.9279055 201.597463,38.413751 C201.421739,38.2119959 201.122356,37.5351338 201.122356,35.3093059 L201.122356,18.4398586 L219.840152,41.1407175 L219.963809,41.2904092 L221.343564,41.2904092 L221.343564,16.2270466 C221.343564,14.1834483 221.597387,13.513096 221.747075,13.2918152 C222.18964,12.6540044 222.938091,12.3416088 224.044495,12.3416088 L225.50886,12.3416088 L225.50886,11.9250789 Z M261.675334,39.1817279 C260.581946,39.1166448 259.72936,38.8237712 259.137107,38.3031106 C258.512316,37.7629244 257.796402,36.5328603 257.01541,34.6454597 L247.051244,10.3240422 L246.940603,10.0637101 L245.51529,10.0637101 L245.40465,10.3175324 L234.939346,34.34608 C234.073748,36.4222199 233.286245,37.801972 232.596367,38.4528023 C232.427154,38.6155062 231.926015,38.9279055 230.442129,39.1882377 L230.097192,39.253317 L230.097192,40.8087963 L240.119934,40.8087963 L240.119934,39.2142694 L239.729436,39.1817279 C238.089352,39.0645777 237.451541,38.8107553 237.210734,38.6155062 C236.885319,38.3616839 236.729122,38.0818298 236.729122,37.7629244 C236.729122,37.4179873 236.852778,36.7215996 237.432015,35.380895 C237.432015,35.380895 238.902886,32.0031019 239.312906,31.0594017 L250.129657,31.0594017 C250.50063,31.9640506 251.750216,35.0099225 251.750216,35.0164323 C252.303422,36.3115794 252.583276,37.2617858 252.583276,37.8280074 C252.583276,38.1664385 252.433588,38.4528023 252.121188,38.7001149 C251.893402,38.8823481 251.33369,39.1231546 250.006001,39.1817279 L249.602487,39.2012535 L249.602487,40.8087963 L262.072338,40.8087963 L262.072338,39.2077596 L261.675334,39.1817279 Z M244.883989,18.2446095 L249.107858,28.5667319 L240.399788,28.5667319 L244.883989,18.2446095 Z M139.157083,13.5586534 C140.367622,13.3243567 141.363388,13.2007004 142.085806,13.2007004 C143.823515,13.2007004 145.235811,13.7343768 146.283643,14.7887175 C147.337983,15.8560741 147.858645,17.2097945 147.858645,18.9344874 C147.858645,20.6852121 147.214326,22.0909997 145.899655,23.2234393 C144.584984,24.3558789 142.573927,24.9351164 139.931568,24.9351164 C139.820927,24.9351164 139.677745,24.9286066 139.456464,24.9221006 C139.378365,24.9221006 139.274232,24.9155908 139.157083,24.9155908 L139.157083,13.5586534 Z M67.4879748,13.6042108 C68.431675,13.3894397 69.2321897,13.2787993 69.8439687,13.2787993 C70.9568826,13.2787993 71.9526501,13.5326217 72.8182514,14.0337566 C73.6708332,14.5283854 74.3411855,15.2898561 74.8162887,16.2921297 C75.2979017,17.3204349 75.5387081,18.4528745 75.5387081,19.6569069 C75.5387081,21.3815999 75.0375695,22.8069094 74.0483119,23.8872855 C73.0525481,24.9676579 71.9070927,25.4883185 70.5468625,25.4883185 C70.1563643,25.4883185 69.6682452,25.455777 69.1085334,25.3906977 C68.6334302,25.3256146 68.0802281,25.2344961 67.4879748,25.1303655 L67.4879748,13.6042108 Z" id="Combined-Shape" fill="#4D4D4D" fill-rule="nonzero"></path>
                        <path d="M1.67630897,48.0004381 L1.67630897,2.75429614 L46.8892874,2.75429614 L46.8892874,48.0004381 L1.67630897,48.0004381 Z M3.20575283,46.3863855 L45.1841201,46.3863855 L45.1841201,4.36897062 L3.20575283,4.36897062 L3.20575283,46.3863855 Z" id="Combined-Shape" fill="#4D4D4D" fill-rule="nonzero"></path>
                        <polygon id="path7347" fill="#4D4D4D" fill-rule="nonzero" points="4.91092386 18.9149618 17.8233368 18.9149618 17.8233368 5.98953297 4.91092386 5.98953297"></polygon>
                        <polygon id="path7349" fill="#4D4D4D" fill-rule="nonzero" points="30.7422596 18.9149618 43.6611823 18.9149618 43.6611823 5.98953297 30.7422596 5.98953297"></polygon>
                        <polygon id="path7351" fill="#4D4D4D" fill-rule="nonzero" points="17.8233368 31.8403943 30.7422596 31.8403943 30.7422596 18.9143399 17.8233368 18.9143399"></polygon>
                        <polygon id="path7353" fill="#4D4D4D" fill-rule="nonzero" points="4.91092386 44.772333 17.8233368 44.772333 17.8233368 31.8403943 4.91092386 31.8403943"></polygon>
                        <polygon id="path7355" fill="#4D4D4D" fill-rule="nonzero" points="30.7422596 44.772333 43.6611823 44.772333 43.6611823 31.8403943 30.7422596 31.8403943"></polygon>
                    </g>
                </g>
            </g>
        </g>
    </g>
</svg>