<?xml version="1.0" encoding="UTF-8"?>
<svg width="117px" height="58px" viewBox="0 0 117 58" version="1.1" xmlns="http://www.w3.org/2000/svg" xmlns:xlink="http://www.w3.org/1999/xlink">
    <!-- Generator: Sketch 42 (36781) - http://www.bohemiancoding.com/sketch -->
    <title>sap</title>
    <desc>Created with Sketch.</desc>
    <defs>
        <polygon id="path-1" points="0.0210624315 57.9122087 0.0210624315 0.288204272 116.48999 0.288204272 116.48999 29.1002065 116.48999 57.9122087"></polygon>
    </defs>
    <g id="Page-1" stroke="none" stroke-width="1" fill="none" fill-rule="evenodd">
        <g id="sap">
            <g id="Group-3">
                <g id="Fill-1-Clipped">
                    <mask id="mask-2" fill="white">
                        <use xlink:href="#path-1"></use>
                    </mask>
                    <g id="path-25"></g>
                    <path d="M0,57.9122087 L0,0.288204272 L116.48999,0.288204272 L58.8691451,57.9122087 L0,57.9122087 Z M69.1311128,11.1209639 L57.6650761,11.1181555 L57.6650761,38.3785586 L47.6470816,11.1181555 L37.7157941,11.1181555 L29.1612875,33.9136742 C28.255603,28.1688959 22.3086254,26.1795493 17.6285531,24.6914885 C14.5341309,23.7012032 11.2645394,22.2398215 11.2936758,20.6271413 C11.3147382,19.3051227 13.0534419,18.0750767 16.4827568,18.2611281 C18.788391,18.3853965 20.8261813,18.5686396 24.869466,20.5232333 L28.8614989,13.5842152 C25.1618828,11.702287 20.0552963,10.5175252 15.8719463,10.5105044 L15.8438631,10.5105044 C10.9647508,10.5105044 6.89584009,12.0958034 4.37677327,14.6991199 C2.62121961,16.5199671 1.67376123,18.8266544 1.63163636,21.3864419 C1.56915115,24.9070274 2.85922508,27.4004682 5.57276835,29.3943784 C7.85734009,31.0698949 10.7857202,32.1598757 13.3662191,32.9634074 C16.5480504,33.9459699 19.1464524,34.8025088 19.1145077,36.6303768 C19.1008171,37.2973538 18.8442065,37.9155361 18.3650361,38.4182262 C17.5692273,39.23931 16.3525208,39.5478746 14.6692815,39.5801703 C11.416891,39.6451128 9.00910405,39.1368061 5.17398631,36.8704885 L1.63163636,43.9035854 C5.46113746,46.0814409 9.99271961,47.3567711 14.6110088,47.3567711 L15.2067245,47.3518565 C19.2328083,47.2805953 22.4788801,46.1284803 25.0779841,44.0415444 C25.2205066,43.9271051 25.3588165,43.8017837 25.4953713,43.6803237 L24.3485219,46.7550876 L34.7607349,46.7550876 L36.5103209,41.4382278 C38.3402952,42.0553571 40.4209124,42.4056955 42.6310635,42.4056955 C44.7797826,42.4056955 46.8123072,42.0764195 48.6096347,41.4870225 L50.2932251,46.7550876 L67.2776188,46.7550876 L67.2776188,35.7436484 L70.9821495,35.7436484 C79.9371933,35.7436484 85.2389584,31.1850361 85.2389584,23.5400756 C85.2389584,15.0269918 80.090598,11.1209639 69.1311128,11.1209639 Z M42.6310635,34.4532234 C41.2953543,34.4532234 40.0382782,34.21592 38.9560203,33.8045005 L42.5928001,22.3402191 L42.6672207,22.3402191 L46.2285268,33.8374984 C45.1589064,34.2253981 43.9358812,34.4532234 42.6310635,34.4532234 Z M69.8058127,27.8624376 L67.2776188,27.8624376 L67.2776188,18.6198916 L69.8058127,18.6198916 C73.1750997,18.6198916 75.8563472,19.7376046 75.8563472,23.1879819 C75.8563472,26.7440225 73.1750997,27.8624376 69.8058127,27.8624376 Z" id="Combined-Shape" fill="#FFFFFF" fill-rule="nonzero" mask="url(#mask-2)"></path>
                </g>
            </g>
        </g>
    </g>
</svg>