<?xml version="1.0" encoding="UTF-8"?>
<svg width="88px" height="63px" viewBox="0 0 88 63" version="1.1" xmlns="http://www.w3.org/2000/svg" xmlns:xlink="http://www.w3.org/1999/xlink">
    <!-- Generator: Sketch 42 (36781) - http://www.bohemiancoding.com/sketch -->
    <title>zendesk</title>
    <desc>Created with Sketch.</desc>
    <defs></defs>
    <g id="Page-1" stroke="none" stroke-width="1" fill="none" fill-rule="evenodd">
        <g id="zendesk" fill-rule="nonzero" fill="#FFFFFF">
            <g id="Layer_1">
                <polygon id="Shape" points="41.9577449 9.94965517 41.9577449 37.1917241 19.4447729 37.1917241"></polygon>
                <path d="M41.9577449,0.17137931 C41.9577449,6.40229395 36.9180445,11.4534483 30.7012589,11.4534483 C24.4844733,11.4534483 19.4447729,6.40229395 19.4447729,0.17137931 L41.9577449,0.17137931 L41.9577449,0.17137931 Z" id="Shape"></path>
                <path d="M45.6665572,37.1917241 C45.6665572,30.9608095 50.7062577,25.9096552 56.9230432,25.9096552 C63.1398288,25.9096552 68.1795293,30.9608095 68.1795293,37.1917241 L45.6665572,37.1917241 Z" id="Shape"></path>
                <polygon id="Shape" points="45.6665572 27.4134483 45.6665572 0.17137931 68.1819376 0.17137931"></polygon>
                <path d="M58.2596606,60.4968966 C59.41742,60.5228405 60.5384712,60.0890184 61.3784346,59.29 L62.9245758,60.9627586 C61.9034483,62.0151724 60.4873563,62.7972414 58.2861522,62.7972414 C54.5123153,62.7972414 52.0750958,60.2893103 52.0750958,56.8931034 C52.0441913,55.3215014 52.6518142,53.8047821 53.758527,52.6910024 C54.8652399,51.5772226 56.3760191,50.9620129 57.9441708,50.9865517 C61.6915161,50.9865517 63.8156541,53.8444828 63.6302135,57.807931 L54.7724138,57.807931 C55.0854953,59.4541379 56.2390805,60.5041379 58.2572523,60.5041379 L58.2596606,60.4968966 Z M60.9569787,55.917931 C60.7161467,54.3803448 59.8033935,53.2482759 57.968254,53.2482759 C56.265572,53.2482759 55.0782704,54.2137931 54.7724138,55.917931 L60.9569787,55.917931 Z" id="Shape"></path>
                <polygon id="Shape" points="0.096332786 60.3737931 6.91428571 53.4317241 0.257690203 53.4317241 0.257690203 51.2544828 10.0740011 51.2544828 10.0740011 53.4775862 3.25604817 60.4172414 10.1655172 60.4172414 10.1655172 62.5968966 0.096332786 62.5968966"></polygon>
                <path d="M17.8215654,60.4968966 C18.9793248,60.5228405 20.100376,60.0890184 20.9403394,59.29 L22.4864806,60.9627586 C21.465353,62.0151724 20.0492611,62.7972414 17.8480569,62.7972414 C14.07422,62.7972414 11.6370005,60.2893103 11.6370005,56.8931034 C11.6060961,55.3215014 12.2137189,53.8047821 13.3204318,52.6910024 C14.4271447,51.5772226 15.9379238,50.9620129 17.5060755,50.9865517 C21.2534209,50.9865517 23.3775588,53.8444828 23.1921182,57.807931 L14.3343186,57.807931 C14.6474001,59.4541379 15.8009852,60.5041379 17.8191571,60.5041379 L17.8215654,60.4968966 Z M20.5188834,55.917931 C20.2780515,54.3803448 19.3652983,53.2482759 17.5301587,53.2482759 C15.8274767,53.2482759 14.6401752,54.2137931 14.3343186,55.917931 L20.5188834,55.917931 L20.5188834,55.917931 Z" id="Shape"></path>
                <path d="M37.9117679,56.8906897 C37.9117679,53.27 40.6163109,50.9913793 43.592994,50.9913793 C45.0399765,50.9720785 46.421428,51.5950119 47.3668309,52.6931034 L47.3668309,46.002069 L49.7751505,46.002069 L49.7751505,62.5631034 L47.3668309,62.5631034 L47.3668309,60.9965517 C46.4388947,62.1405598 45.0422874,62.799594 43.5713191,62.7875862 C40.6813355,62.7875862 37.9117679,60.4968966 37.9117679,56.8906897 M47.5016968,56.8689655 C47.4488256,54.8931022 45.81695,53.3291855 43.845177,53.3647201 C41.8734039,53.4002548 40.2986785,55.0219598 40.3167127,56.998451 C40.3347469,58.9749421 41.9388005,60.5675109 43.9108922,60.5668966 C45.9796388,60.5668966 47.5016968,58.9110345 47.5016968,56.8689655" id="Shape"></path>
                <path d="M65.1980296,60.1565517 L67.3799672,59.022069 C67.9678573,60.0724935 69.0879753,60.7100327 70.2892173,60.677931 C71.6523262,60.677931 72.3579639,59.9755172 72.3579639,59.1813793 C72.3579639,58.2737931 71.040613,58.0686207 69.6076628,57.7741379 C67.6810071,57.3662069 65.6748768,56.7289655 65.6748768,54.3948276 C65.6748768,52.6013793 67.3775588,50.9455172 70.0604269,50.9696552 C72.1725233,50.9696552 73.7427477,51.8096552 74.6362343,53.1686207 L72.6132458,54.2813793 C72.0450575,53.4378994 71.0823241,52.948592 70.0676519,52.9875862 C68.7719759,52.9875862 68.1120963,53.6224138 68.1120963,54.3489655 C68.1120963,55.1648276 69.1573071,55.3917241 70.7949644,55.7562069 C72.6590038,56.1641379 74.7711002,56.7772414 74.7711002,59.1355172 C74.7711002,60.6996552 73.4079912,62.8093103 70.1808429,62.7875862 C67.8182813,62.7875862 66.1589491,61.8341379 65.2028462,60.1565517" id="Shape"></path>
                <polygon id="Shape" points="81.309688 57.5255172 79.3998905 59.6134483 79.3998905 62.5606897 76.9915709 62.5606897 76.9915709 45.9996552 79.3998905 45.9996552 79.3998905 56.8448276 84.5127531 51.2182759 87.4460865 51.2182759 83.01237 56.0724138 87.5592775 62.5606897 84.8330597 62.5606897"></polygon>
                <path d="M30.6314176,50.9889655 C27.7679256,50.9889655 25.3692392,52.85 25.3692392,55.9348276 L25.3692392,62.5606897 L27.8233169,62.5606897 L27.8233169,56.2413793 C27.8233169,54.3803448 28.8902025,53.2675862 30.7133005,53.2675862 C32.5363985,53.2675862 33.4419267,54.3803448 33.4419267,56.2413793 L33.4419267,62.5606897 L35.8839628,62.5606897 L35.8839628,55.9348276 C35.8839628,52.85 33.4756431,50.9889655 30.6217843,50.9889655" id="Shape"></path>
            </g>
        </g>
    </g>
</svg>